<svg width="3300" height="2200" version="1.1" viewBox="0 0 3300 2200" xmlns="http://www.w3.org/2000/svg">
 <defs>
  <clipPath id="clipPath855">
   <path d="m20222 2454.1v864.9c1189.5 964.1 1774.4 2211.3 2025 3446.8 135.8-262.79 286.2-568.33 445.5-931.13 730.7-1663.3-601.2-3139.1-2470.5-3380.6m-17239 2596.5c-729.59 462.4-1215.2 887.7-1512.4 1279.2 580.38-251.9 1065.9-727.3 1512.4-1279.2m1641.6 667.7c-1152 619.3-2257.2 724.4-2874.8 724.4-146.82 0-266.18-6-351.94-12.4-1277.7 1859.1 1720.3 2933.8 2820.7 3562-236.14-1261.5-280.42-2839.3 406.07-4274m2897.2 2382.3c-543.14 1346-1241.4 2706.8-2121.6 3805-78.43 97.9-191.59 144.1-304.2 144.1-155.16 0-309.29-87.8-370.13-249.2-44.44-118-92.11-251-140.87-397.7-236.86 789.1-622.97 1727.5 379.73 2530.8 756.48 605.9 1497.4 841.8 2181.4 841.8 1159.5 0 2154.9-678.3 2781.3-1382h-508.08c-23.48 0-42.5-19-42.5-42.5v-90.4h-241.12c-66.15 0-119.78-53.6-119.78-119.8v-909.4c0-35 28.37-63.4 63.36-63.4h107.51c-53.79-116.5-169.49-197.2-303.6-197.2-704.28 0-1361.4-924.5-1361.4-1701.8v-2168.3m11729 382.92c755.9 1631.5 386.6 3475.3 41.9 4553 342.2 112.2 659.1 162.7 950 162.7 1932.2 0 2712-2229.4 2072.9-3394-63.3 485.52-149.7 905.22-227.1 1224.5-47.5 196-226.5 312.1-408.3 312.1-101.5 0-203.8-36.2-284.6-114.9-806.1-785.8-1522-1742.7-2144.8-2743.4m-2790.1 927.15v858.27c0 292.1-92.8 604.9-246 881.7 415.7 227.1 851.6 515.7 1306.7 875.8 39.2 30.9 78.4 61.4 117.1 91-482.5-872.4-871.1-1816.9-1177.8-2706.8"/>
  </clipPath>
  <linearGradient id="linearGradient863" x2="1" gradientTransform="matrix(21810 0 0 -21810 1086.5 8289)" gradientUnits="userSpaceOnUse">
   <stop stop-color="#dae3fe" offset="0"/>
   <stop stop-color="#e9effd" offset="1"/>
  </linearGradient>
  <clipPath id="clipPath877">
   <path d="m15875 1702.7h-7617.8c53.74 3.5 102.83 7.3 146.67 11.1 112.01 9.7 172.04 136.5 108.73 229.4-166.07 243.6-490.81 690.6-990.62 1255.6v7070.1c0 777.3 657.12 1701.8 1361.4 1701.8 134.11 0 249.81 80.7 303.6 197.2h5608.8c53.7-116.5 169.5-197.2 303.6-197.2 439.6 0 860.9-360.3 1115.4-820.1 153.2-276.8 246-589.6 246-881.7v-858.27c-2.3-6.47-4.5-13.05-6.8-19.51v527.49h-4355.5v348.19c0 160.8-130.7 288.7-288.2 288.7-8.6 0-17.3-0.4-26-1.1l-2482.5-220.2c-148.97-13.3-263.18-138.1-263.18-287.6v-127.99h-1509.9v-3533.7h1509.9v-3747.2c0-159.4 129.25-288.7 288.7-288.7h2482.5c159.5 0 288.7 129.3 288.7 288.7v3747.2h1957.1v-4252.8c0-211.6 180.9-410 404.1-410h1548.9c-42.9-12.7-87.6-19.4-133.6-19.4m-6548.3 9855.4c-101.91 0-193.63-61.9-231.83-156.4l-37.77-93.4c-66.73-165.1 55.39-343.8 231.4-343.8 3.16 0 6.36 0.1 9.55 0.2l2559.6 93.4c134.5 4.9 240.9 115.4 240.9 249.9 0 138.1-111.9 250.1-250 250.1h-2521.8"/>
  </clipPath>
  <linearGradient id="linearGradient885" x2="1" gradientTransform="matrix(8938.8 0 0 -8938.8 7521.9 7091.6)" gradientUnits="userSpaceOnUse">
   <stop stop-color="#4042e2" offset="0"/>
   <stop stop-color="#4f52ff" offset="1"/>
  </linearGradient>
  <clipPath id="clipPath895">
   <path d="m14056 6384.9h-1957.1v3533.7h4355.5v-527.49c-153.5-446.63-286.4-879.37-400.2-1282h-743.3c-46.5 0-84.2-33.2-84.2-74.16v-23.38c0.4-112.84-103.4-204.58-231.5-204.58-485.9 0-939.2-547.9-939.2-1008.5v-413.55m-5017 0h-1509.9v3533.7h1509.9v-3533.7"/>
  </clipPath>
  <linearGradient id="linearGradient903" x2="1" gradientTransform="matrix(7018.6 4799 4799 -7018.6 7621.8 5164.1)" gradientUnits="userSpaceOnUse">
   <stop stop-color="#09005d" offset="0"/>
   <stop stop-color="#1a0f91" offset="1"/>
  </linearGradient>
  <clipPath id="clipPath913">
   <path d="m14606 13260h-5228.7v90.4c0 23.5 19.02 42.5 42.5 42.5h5143.7c23.5 0 42.5-19 42.5-42.5v-90.4"/>
  </clipPath>
  <linearGradient id="linearGradient919" x2="1" gradientTransform="matrix(-210.02 -3360.3 -3360.3 210.02 12115 15066)" gradientUnits="userSpaceOnUse">
   <stop stop-color="#09005d" offset="0"/>
   <stop stop-color="#1a0f91" offset="1"/>
  </linearGradient>
  <clipPath id="clipPath929">
   <path d="m14903 12168h-5823.8c-34.99 0-63.36 28.4-63.36 63.4v909.4c0 66.2 53.63 119.8 119.78 119.8h5710.9c66.2 0 119.8-53.6 119.8-119.8v-909.4c0-35-28.3-63.4-63.3-63.4m-564.1 936.7c-20.5 0-37.2-16.7-37.2-37.2v-718.8c0-20.5 16.7-37.2 37.2-37.2h139.3c20.5 0 37.2 16.7 37.2 37.2v718.8c0 20.5-16.7 37.2-37.2 37.2h-139.3m-439.5 0c-20.6 0-37.2-16.7-37.2-37.2v-718.8c0-20.5 16.6-37.2 37.2-37.2h139.2c20.6 0 37.2 16.7 37.2 37.2v718.8c0 20.5-16.6 37.2-37.2 37.2h-139.2m-439.6 0c-20.5 0-37.2-16.7-37.2-37.2v-718.8c0-20.5 16.7-37.2 37.2-37.2h139.3c20.5 0 37.2 16.7 37.2 37.2v718.8c0 20.5-16.7 37.2-37.2 37.2h-139.3m-439.5 0c-20.6 0-37.2-16.7-37.2-37.2v-718.8c0-20.5 16.6-37.2 37.2-37.2h139.3c20.5 0 37.2 16.7 37.2 37.2v718.8c0 20.5-16.7 37.2-37.2 37.2h-139.3m-439.6 0c-20.5 0-37.2-16.7-37.2-37.2v-718.8c0-20.5 16.7-37.2 37.2-37.2h139.3c20.6 0 37.2 16.7 37.2 37.2v718.8c0 20.5-16.6 37.2-37.2 37.2h-139.3m-439.5 0c-20.6 0-37.2-16.7-37.2-37.2v-718.8c0-20.5 16.6-37.2 37.2-37.2h139.3c20.5 0 37.2 16.7 37.2 37.2v718.8c0 20.5-16.7 37.2-37.2 37.2h-139.3m-439.6 0c-20.5 0-37.2-16.7-37.2-37.2v-718.8c0-20.5 16.7-37.2 37.2-37.2h139.3c20.6 0 37.2 16.7 37.2 37.2v718.8c0 20.5-16.6 37.2-37.2 37.2h-139.3m-439.5 0c-20.5 0-37.2-16.7-37.2-37.2v-718.8c0-20.5 16.7-37.2 37.2-37.2h139.3c20.5 0 37.2 16.7 37.2 37.2v718.8c0 20.5-16.7 37.2-37.2 37.2h-139.3m-439.5 0c-20.6 0-37.2-16.7-37.2-37.2v-718.8c0-20.5 16.6-37.2 37.2-37.2h139.3c20.5 0 37.1 16.7 37.1 37.2v718.8c0 20.5-16.6 37.2-37.1 37.2h-139.3m-439.6 0c-20.5 0-37.2-16.7-37.2-37.2v-718.8c0-20.5 16.7-37.2 37.2-37.2h139.3c20.5 0 37.2 16.7 37.2 37.2v718.8c0 20.5-16.7 37.2-37.2 37.2h-139.3m-439.53 0c-20.53 0-37.19-16.7-37.19-37.2v-718.8c0-20.5 16.66-37.2 37.19-37.2h139.33c20.5 0 37.1 16.7 37.1 37.2v718.8c0 20.5-16.6 37.2-37.1 37.2h-139.33m-439.54 0c-20.54 0-37.19-16.7-37.19-37.2v-718.8c0-20.5 16.65-37.2 37.19-37.2h139.29c20.54 0 37.19 16.7 37.19 37.2v718.8c0 20.5-16.65 37.2-37.19 37.2h-139.29"/>
  </clipPath>
  <linearGradient id="linearGradient935" x2="1" gradientTransform="matrix(-240.02 -2820.3 -2820.3 240.02 12315 16495)" gradientUnits="userSpaceOnUse">
   <stop stop-color="#09005d" offset="0"/>
   <stop stop-color="#1a0f91" offset="1"/>
  </linearGradient>
  <clipPath id="clipPath945">
   <path d="m9643.4 12311h-139.29c-20.54 0-37.19 16.7-37.19 37.2v718.8c0 20.5 16.65 37.2 37.19 37.2h139.29c20.54 0 37.19-16.7 37.19-37.2v-718.8c0-20.5-16.65-37.2-37.19-37.2"/>
  </clipPath>
  <clipPath id="clipPath955">
   <path d="m10083 12311h-139.33c-20.53 0-37.19 16.7-37.19 37.2v718.8c0 20.5 16.66 37.2 37.19 37.2h139.33c20.5 0 37.1-16.7 37.1-37.2v-718.8c0-20.5-16.6-37.2-37.1-37.2"/>
  </clipPath>
  <clipPath id="clipPath965">
   <path d="m10522 12311h-139.3c-20.5 0-37.2 16.7-37.2 37.2v718.8c0 20.5 16.7 37.2 37.2 37.2h139.3c20.5 0 37.2-16.7 37.2-37.2v-718.8c0-20.5-16.7-37.2-37.2-37.2"/>
  </clipPath>
  <clipPath id="clipPath975">
   <path d="m10962 12311h-139.3c-20.6 0-37.2 16.7-37.2 37.2v718.8c0 20.5 16.6 37.2 37.2 37.2h139.3c20.5 0 37.1-16.7 37.1-37.2v-718.8c0-20.5-16.6-37.2-37.1-37.2"/>
  </clipPath>
  <clipPath id="clipPath985">
   <path d="m11402 12311h-139.3c-20.5 0-37.2 16.7-37.2 37.2v718.8c0 20.5 16.7 37.2 37.2 37.2h139.3c20.5 0 37.2-16.7 37.2-37.2v-718.8c0-20.5-16.7-37.2-37.2-37.2"/>
  </clipPath>
  <clipPath id="clipPath995">
   <path d="m11841 12311h-139.3c-20.5 0-37.2 16.7-37.2 37.2v718.8c0 20.5 16.7 37.2 37.2 37.2h139.3c20.6 0 37.2-16.7 37.2-37.2v-718.8c0-20.5-16.6-37.2-37.2-37.2"/>
  </clipPath>
  <clipPath id="clipPath1005">
   <path d="m12281 12311h-139.3c-20.6 0-37.2 16.7-37.2 37.2v718.8c0 20.5 16.6 37.2 37.2 37.2h139.3c20.5 0 37.2-16.7 37.2-37.2v-718.8c0-20.5-16.7-37.2-37.2-37.2"/>
  </clipPath>
  <clipPath id="clipPath1015">
   <path d="m12720 12311h-139.3c-20.5 0-37.2 16.7-37.2 37.2v718.8c0 20.5 16.7 37.2 37.2 37.2h139.3c20.6 0 37.2-16.7 37.2-37.2v-718.8c0-20.5-16.6-37.2-37.2-37.2"/>
  </clipPath>
  <clipPath id="clipPath1025">
   <path d="m13160 12311h-139.3c-20.6 0-37.2 16.7-37.2 37.2v718.8c0 20.5 16.6 37.2 37.2 37.2h139.3c20.5 0 37.2-16.7 37.2-37.2v-718.8c0-20.5-16.7-37.2-37.2-37.2"/>
  </clipPath>
  <clipPath id="clipPath1035">
   <path d="m13599 12311h-139.3c-20.5 0-37.2 16.7-37.2 37.2v718.8c0 20.5 16.7 37.2 37.2 37.2h139.3c20.5 0 37.2-16.7 37.2-37.2v-718.8c0-20.5-16.7-37.2-37.2-37.2"/>
  </clipPath>
  <clipPath id="clipPath1045">
   <path d="m14039 12311h-139.2c-20.6 0-37.2 16.7-37.2 37.2v718.8c0 20.5 16.6 37.2 37.2 37.2h139.2c20.6 0 37.2-16.7 37.2-37.2v-718.8c0-20.5-16.6-37.2-37.2-37.2"/>
  </clipPath>
  <clipPath id="clipPath1055">
   <path d="m14478 12311h-139.3c-20.5 0-37.2 16.7-37.2 37.2v718.8c0 20.5 16.7 37.2 37.2 37.2h139.3c20.5 0 37.2-16.7 37.2-37.2v-718.8c0-20.5-16.7-37.2-37.2-37.2"/>
  </clipPath>
  <clipPath id="clipPath1065">
   <path d="m9288.4 10964c-176.01 0-298.13 178.7-231.4 343.8l37.77 93.4c38.2 94.5 129.92 156.4 231.83 156.4h2521.8c138.1 0 250-112 250-250.1 0-134.5-106.4-245-240.9-249.9l-2559.6-93.4c-3.19-0.1-6.39-0.2-9.55-0.2"/>
  </clipPath>
  <linearGradient id="linearGradient1071" x2="1" gradientTransform="matrix(8938.8 0 0 -8938.8 7521.9 7091.6)" gradientUnits="userSpaceOnUse">
   <stop stop-color="#9e9ff0" offset="0"/>
   <stop stop-color="#a5a7ff" offset="1"/>
  </linearGradient>
  <clipPath id="clipPath1081">
   <path d="m11810 2349h-2482.5c-159.45 0-288.7 129.3-288.7 288.7v3747.2h3059.9v-3747.2c0-159.4-129.2-288.7-288.7-288.7m288.7 7569.6h-3059.9v127.99c0 149.5 114.21 274.3 263.18 287.6l2482.5 220.2c8.7 0.7 17.4 1.1 26 1.1 157.5 0 288.2-127.9 288.2-288.7v-348.19"/>
  </clipPath>
  <clipPath id="clipPath1097">
   <path d="m9038.5 6384.9h3059.9v3533.7h-3059.9z"/>
  </clipPath>
  <linearGradient id="linearGradient1103" x2="1" gradientTransform="matrix(7018.6 4799 4799 -7018.6 7621.8 5164.1)" gradientUnits="userSpaceOnUse">
   <stop stop-color="#827dac" offset="0"/>
   <stop stop-color="#8a85c7" offset="1"/>
  </linearGradient>
  <clipPath id="clipPath1137">
   <path d="m20217 4496.8h-3542.1v2094h3542.1v-2094m-5297.4 0h-859.7v2094h877.8c-11.6-22.65-18.1-48.26-18.1-75.28v-2018.8"/>
  </clipPath>
  <linearGradient id="linearGradient1145" x2="1" gradientTransform="matrix(3437 -7713.3 -7713.3 -3437 16371 7265.9)" gradientUnits="userSpaceOnUse">
   <stop stop-color="#fe7062" offset="0"/>
   <stop stop-color="#ff928e" offset="1"/>
  </linearGradient>
  <clipPath id="clipPath1155">
   <path d="m18900 8283.6h-3522c-23.5 0-42.5 19.03-42.5 42.5v281.47c0 23.48 19 42.5 42.5 42.5h3522c23.5 0 42.5-19.02 42.5-42.5v-281.47c0-23.47-19-42.5-42.5-42.5z"/>
  </clipPath>
  <linearGradient id="linearGradient1163" x2="1" gradientTransform="matrix(-1369.2 -1920.6 -1920.6 1369.2 17823 9427.1)" gradientUnits="userSpaceOnUse">
   <stop stop-color="#4042e2" offset="0"/>
   <stop stop-color="#4f52ff" offset="1"/>
  </linearGradient>
  <clipPath id="clipPath1173">
   <path d="m19128 7923.8h-3978.2c-35 0-63.4 28.37-63.4 63.36v464.32c0 66.16 53.7 119.79 119.8 119.79h3865.4c66.1 0 119.8-53.63 119.8-119.79v-464.31c0-35-28.4-63.37-63.4-63.37z"/>
  </clipPath>
  <linearGradient id="linearGradient1181" x2="1" gradientTransform="matrix(400 2190 2190 -400 17106 8042.2)" gradientUnits="userSpaceOnUse">
   <stop stop-color="#4042e2" offset="0"/>
   <stop stop-color="#4f52ff" offset="1"/>
  </linearGradient>
  <clipPath id="clipPath1191">
   <path d="m15511 8008.9h-80.4c-18.5 0-33.5 14.98-33.5 33.46v403.08c0 18.48 15 33.47 33.5 33.47h80.4c18.5 0 33.5-14.99 33.5-33.47v-403.08c0-18.48-15-33.46-33.5-33.46z"/>
  </clipPath>
  <linearGradient id="linearGradient1197" x2="1" gradientTransform="matrix(-190 -1340 -1340 190 15790 10494)" gradientUnits="userSpaceOnUse">
   <stop stop-color="#09005d" offset="0"/>
   <stop stop-color="#1a0f91" offset="1"/>
  </linearGradient>
  <clipPath id="clipPath1207">
   <path d="m15814 8008.9h-80.4c-18.5 0-33.5 14.98-33.5 33.46v403.08c0 18.48 15 33.47 33.5 33.47h80.4c18.5 0 33.5-14.99 33.5-33.47v-403.08c0-18.48-15-33.46-33.5-33.46z"/>
  </clipPath>
  <linearGradient id="linearGradient1213" x2="1" gradientTransform="matrix(-190 -1340 -1340 190 16087 10452)" gradientUnits="userSpaceOnUse">
   <stop stop-color="#09005d" offset="0"/>
   <stop stop-color="#1a0f91" offset="1"/>
  </linearGradient>
  <clipPath id="clipPath1223">
   <path d="m16118 8008.9h-80.5c-18.5 0-33.5 14.98-33.5 33.46v403.08c0 18.48 15 33.47 33.5 33.47h80.5c18.5 0 33.4-14.99 33.4-33.47v-403.08c0-18.48-14.9-33.46-33.4-33.46z"/>
  </clipPath>
  <linearGradient id="linearGradient1229" x2="1" gradientTransform="matrix(-190 -1340 -1340 190 16385 10410)" gradientUnits="userSpaceOnUse">
   <stop stop-color="#09005d" offset="0"/>
   <stop stop-color="#1a0f91" offset="1"/>
  </linearGradient>
  <clipPath id="clipPath1239">
   <path d="m16421 8008.9h-80.5c-18.5 0-33.4 14.98-33.4 33.46v403.08c0 18.48 14.9 33.47 33.4 33.47h80.5c18.5 0 33.4-14.99 33.4-33.47v-403.08c0-18.48-14.9-33.46-33.4-33.46z"/>
  </clipPath>
  <linearGradient id="linearGradient1247" x2="1" gradientTransform="matrix(-190 -1340 -1340 190 16682 10368)" gradientUnits="userSpaceOnUse">
   <stop stop-color="#09005d" offset="0"/>
   <stop stop-color="#1a0f91" offset="1"/>
  </linearGradient>
  <clipPath id="clipPath1257">
   <path d="m16724 8008.9h-80.5c-18.5 0-33.4 14.98-33.4 33.46v403.08c0 18.48 14.9 33.47 33.4 33.47h80.5c18.5 0 33.5-14.99 33.5-33.47v-403.08c0-18.48-15-33.46-33.5-33.46z"/>
  </clipPath>
  <linearGradient id="linearGradient1265" x2="1" gradientTransform="matrix(-190 -1340 -1340 190 16979 10326)" gradientUnits="userSpaceOnUse">
   <stop stop-color="#09005d" offset="0"/>
   <stop stop-color="#1a0f91" offset="1"/>
  </linearGradient>
  <clipPath id="clipPath1275">
   <path d="m17027 8008.9h-80.5c-18.4 0-33.4 14.98-33.4 33.46v403.08c0 18.48 15 33.47 33.4 33.47h80.5c18.5 0 33.5-14.99 33.5-33.48v-403.07c0-18.48-15-33.46-33.5-33.46z"/>
  </clipPath>
  <linearGradient id="linearGradient1283" x2="1" gradientTransform="matrix(-190 -1340 -1340 190 17276 10284)" gradientUnits="userSpaceOnUse">
   <stop stop-color="#09005d" offset="0"/>
   <stop stop-color="#1a0f91" offset="1"/>
  </linearGradient>
  <clipPath id="clipPath1293">
   <path d="m17330 8008.9h-80.4c-18.5 0-33.5 14.98-33.5 33.46v403.08c0 18.48 15 33.47 33.5 33.47h80.4c18.5 0 33.5-14.99 33.5-33.47v-403.08c0-18.48-15-33.46-33.5-33.46z"/>
  </clipPath>
  <linearGradient id="linearGradient1301" x2="1" gradientTransform="matrix(-190 -1340 -1340 190 17574 10241)" gradientUnits="userSpaceOnUse">
   <stop stop-color="#09005d" offset="0"/>
   <stop stop-color="#1a0f91" offset="1"/>
  </linearGradient>
  <clipPath id="clipPath1311">
   <path d="m17634 8008.9h-80.4c-18.5 0-33.5 14.98-33.5 33.46v403.08c0 18.48 15 33.47 33.5 33.47h80.4c18.5 0 33.5-14.99 33.5-33.47v-403.08c0-18.48-15-33.46-33.5-33.46z"/>
  </clipPath>
  <linearGradient id="linearGradient1319" x2="1" gradientTransform="matrix(-190 -1340 -1340 190 17871 10199)" gradientUnits="userSpaceOnUse">
   <stop stop-color="#09005d" offset="0"/>
   <stop stop-color="#1a0f91" offset="1"/>
  </linearGradient>
  <clipPath id="clipPath1329">
   <path d="m17937 8008.9h-80.5c-18.5 0-33.5 14.98-33.5 33.46v403.08c0 18.48 15 33.47 33.5 33.47h80.5c18.4 0 33.4-14.99 33.4-33.47v-403.08c0-18.48-15-33.46-33.4-33.46z"/>
  </clipPath>
  <linearGradient id="linearGradient1337" x2="1" gradientTransform="matrix(-190 -1340 -1340 190 18168 10157)" gradientUnits="userSpaceOnUse">
   <stop stop-color="#09005d" offset="0"/>
   <stop stop-color="#1a0f91" offset="1"/>
  </linearGradient>
  <clipPath id="clipPath1347">
   <path d="m18240 8008.9h-80.5c-18.5 0-33.5 14.98-33.5 33.46v403.08c0 18.48 15 33.47 33.5 33.47h80.5c18.5 0 33.4-14.99 33.4-33.47v-403.08c0-18.48-14.9-33.46-33.4-33.46z"/>
  </clipPath>
  <linearGradient id="linearGradient1355" x2="1" gradientTransform="matrix(-190 -1340 -1340 190 18465 10115)" gradientUnits="userSpaceOnUse">
   <stop stop-color="#09005d" offset="0"/>
   <stop stop-color="#1a0f91" offset="1"/>
  </linearGradient>
  <clipPath id="clipPath1365">
   <path d="m18543 8008.9h-80.5c-18.5 0-33.4 14.98-33.4 33.46v403.08c0 18.48 14.9 33.47 33.4 33.47h80.5c18.5 0 33.5-14.99 33.5-33.47v-403.08c0-18.48-15-33.46-33.5-33.46z"/>
  </clipPath>
  <linearGradient id="linearGradient1373" x2="1" gradientTransform="matrix(-190 -1340 -1340 190 18762 10073)" gradientUnits="userSpaceOnUse">
   <stop stop-color="#09005d" offset="0"/>
   <stop stop-color="#1a0f91" offset="1"/>
  </linearGradient>
  <clipPath id="clipPath1383">
   <path d="m18847 8008.9h-80.5c-18.4 0-33.4 14.98-33.4 33.46v403.08c0 18.48 15 33.47 33.4 33.47h80.5c18.5 0 33.5-14.99 33.5-33.47v-403.08c0-18.48-15-33.46-33.5-33.46z"/>
  </clipPath>
  <linearGradient id="linearGradient1391" x2="1" gradientTransform="matrix(-190 -1340 -1340 190 19060 10031)" gradientUnits="userSpaceOnUse">
   <stop stop-color="#09005d" offset="0"/>
   <stop stop-color="#1a0f91" offset="1"/>
  </linearGradient>
  <clipPath id="clipPath1409">
   <path d="m16675 4496.8h-1755.3v2018.8c0 27.02 6.5 52.63 18.1 75.28h1737.2v-2094"/>
  </clipPath>
  <linearGradient id="linearGradient1417" x2="1" gradientTransform="matrix(3437 -7713.3 -7713.3 -3437 16371 7265.9)" gradientUnits="userSpaceOnUse">
   <stop stop-color="#feb6af" offset="0"/>
   <stop stop-color="#ffc7c5" offset="1"/>
  </linearGradient>
  <clipPath id="clipPath1427">
   <path d="m6643.2 2080.8s-27.76-157.2-41.37-312.8c-5.32-60.8 41.55-113.6 102.54-116.1 207.19-8.7 650.39-25.4 809.42-18.3 23.9 1 39.53 25.5 30.69 47.7-7.42 18.7-21.71 33.7-39.93 42.1l-732.08 336.5z"/>
  </clipPath>
  <linearGradient id="linearGradient1433" x2="1" gradientTransform="matrix(945.57 0 0 -945.57 6601.4 1856.3)" gradientUnits="userSpaceOnUse">
   <stop stop-color="#09005d" offset="0"/>
   <stop stop-color="#1a0f91" offset="1"/>
  </linearGradient>
  <clipPath id="clipPath1443">
   <path d="m6620.5 2173.1 22.31-188s128.24-59.7 215.81 7.5l-53.11 209.5z"/>
  </clipPath>
  <linearGradient id="linearGradient1449" x2="1" gradientTransform="matrix(238.12 0 0 -238.12 6620.5 2081.4)" gradientUnits="userSpaceOnUse">
   <stop stop-color="#ff928e" offset="0"/>
   <stop stop-color="#feb3b1" offset="1"/>
  </linearGradient>
  <clipPath id="clipPath1459">
   <path d="m6637.2 5707.6c-9.63-49.1-51.72-2450 204.92-3525.9 4.19-17.6-4.71-35.6-21.42-42.5-39.36-16.1-116.53-39.3-209.01-42.5-28.63-0.9-54.31 17.7-62.4 45.2-73.35 249.6-424.87 1500.3-470.73 2695.1-51.24 1335 0 45.4 0 45.4l30.05 825.3z"/>
  </clipPath>
  <linearGradient id="linearGradient1465" x2="1" gradientTransform="matrix(-2280 -266.28 -266.28 2280 7200.9 3999.3)" gradientUnits="userSpaceOnUse">
   <stop stop-color="#09005d" offset="0"/>
   <stop stop-color="#1a0f91" offset="1"/>
  </linearGradient>
  <clipPath id="clipPath1475">
   <path d="m5801.1 1998.8s-44.19-79.4-86.97-290.2c-7.73-38.1 18.87-74.5 57.54-78.3 68.41-6.8 173.74-15.4 258.11-14.8 38.89 0.2 69.24 34.1 64.55 72.7-9.34 77-38.46 203.2-128.4 301.6z"/>
  </clipPath>
  <linearGradient id="linearGradient1481" x2="1" gradientTransform="matrix(382.02 0 0 -382.02 5712.8 1807.1)" gradientUnits="userSpaceOnUse">
   <stop stop-color="#09005d" offset="0"/>
   <stop stop-color="#1a0f91" offset="1"/>
  </linearGradient>
  <clipPath id="clipPath1491">
   <path d="m5762.3 2240.6 52.12-284.3s51.53-38.4 153.48-10.6l-24.88 305.9z"/>
  </clipPath>
  <linearGradient id="linearGradient1497" x2="1" gradientTransform="matrix(205.6 0 0 -205.6 5762.3 2093.6)" gradientUnits="userSpaceOnUse">
   <stop stop-color="#ff928e" offset="0"/>
   <stop stop-color="#feb3b1" offset="1"/>
  </linearGradient>
  <clipPath id="clipPath1507">
   <path d="m5547.6 5691c-209.88-1266.7 119.45-3187.9 205.59-3552.7 5.27-22.4 23.3-39.5 45.94-43.3 38.45-6.3 101.76-11.5 164.17 6.6 21.51 6.3 36.61 25.6 37.49 48 11.55 295-9.25 2105.8 186.32 2821.4 9.91 36.3 32.07 67.9 62.71 89.7l379.59 269.9 16.59 360.4z"/>
  </clipPath>
  <linearGradient id="linearGradient1513" x2="1" gradientTransform="matrix(-1259.5 4371.1 4371.1 1259.5 5600 5995.2)" gradientUnits="userSpaceOnUse">
   <stop stop-color="#09005d" offset="0"/>
   <stop stop-color="#1a0f91" offset="1"/>
  </linearGradient>
  <clipPath id="clipPath1523">
   <path d="m7068.8 8190.5c4.91-4.91-78.57-44.19-73.66-78.57 4.91-34.37 4.91-68.75 39.29-63.84 34.37 4.92 176.78 112.94 176.78 112.94z"/>
  </clipPath>
  <linearGradient id="linearGradient1529" x2="1" gradientTransform="matrix(121.13 121.13 121.13 -121.13 6968.1 8009.7)" gradientUnits="userSpaceOnUse">
   <stop stop-color="#ff928e" offset="0"/>
   <stop stop-color="#feb3b1" offset="1"/>
  </linearGradient>
  <clipPath id="clipPath1539">
   <path d="m5438.5 6741.9-103.12 186.61s-93.3-216.07-392.85-348.66c0 0 78.57-19.63 147.32-132.54 68.75-113 412.49-540.2 412.49-540.2l-19.64-142.4s-435.91 14.5-751.33 206.2c-250.44 152.3-274.99 334-274.99 334s-117.86 9.8-142.41 117.8c-24.55 108.04 39.29 211.17 39.29 211.17s-78.58 658.01 623.65 928.1c0 0 103.12 245.53 383.02 216.07l314.28 162.05 628.56 14.73 353.57-108.03s108.03 0 162.05-68.75c0 0 621.19 110.49 908.47-441.96 0 0-104.72 223.88-103.6 550.87 0.44 127.1-28.47 252.61-83.01 367.42l93.3 108.03s397.76-530.35 510.71-800.43c112.94-270.09 44.19-495.97 44.19-495.97s49.11-108.03-44.19-211.16c0 0-63.84-68.75-176.78-24.55 0 0-235.72-93.31-441.96-68.76-145.02 17.27-319.17 134.08-409.79 201.91-38.63 28.91-87.87 39.46-135.13 29.69-74.65-15.41-193.38-29.68-294.8 4.12z"/>
  </clipPath>
  <linearGradient id="linearGradient1545" x2="1" gradientTransform="matrix(-89.998 -3434.8 -3434.8 89.998 6335.7 9790.4)" gradientUnits="userSpaceOnUse">
   <stop stop-color="#ff928e" offset="0"/>
   <stop stop-color="#feb3b1" offset="1"/>
  </linearGradient>
  <clipPath id="clipPath1555">
   <path d="m5833.8 8472.9c0-4.91-179.24-601.55-179.24-601.55s412.49-54.02 667.85 19.65l-132.59 437.04z"/>
  </clipPath>
  <linearGradient id="linearGradient1561" x2="1" gradientTransform="matrix(-89.998 -3434.8 -3434.8 89.998 6038.7 9798.2)" gradientUnits="userSpaceOnUse">
   <stop stop-color="#ff928e" offset="0"/>
   <stop stop-color="#feb3b1" offset="1"/>
  </linearGradient>
  <clipPath id="clipPath1571">
   <path d="m6527.9 7881.4c-5.21-101.41-30.58-689.25 234.73-900.99l-116.68-1389.2c-183.07-99.9-682.34-133.2-1115-33.3 0 0-33.54 614.4-58.09 776.4-24.55 162.1-137.5 594.2-137.5 594.2s370.47 284.37 131.47 898.83c-2.15 5.5 0.09 11.75 5.27 14.58l87.7 47.84c5.24 2.86 11.71-0.52 12.31-6.47 7.66-76.06 67.03-468.81 475.29-424.43 393.65 42.79 377.19 368.92 366.44 452.14-1.17 9.03 7.35 16.25 16.09 13.7l84.76-24.73c8.2-2.39 13.69-10.09 13.25-18.61z"/>
  </clipPath>
  <linearGradient id="linearGradient1577" x2="1" gradientTransform="matrix(-776.95 -2403.4 -2403.4 776.95 5967.4 6438.2)" gradientUnits="userSpaceOnUse">
   <stop stop-color="#fe7062" offset="0"/>
   <stop stop-color="#ff928e" offset="1"/>
  </linearGradient>
  <clipPath id="clipPath1587">
   <path d="m5674.2 7468.7s121.97-134.61 373.21-112.95c284.82 24.55 378.12 216.08 378.12 216.08s20.92-506.46 328.04-699.96c7.29 60.06 9.11 108.52 9.11 108.52-265.31 211.74-239.94 799.58-234.73 900.99 0.44 8.52-5.05 16.22-13.25 18.61l-84.76 24.73c-8.74 2.55-17.26-4.67-16.09-13.7 10.75-83.22 27.21-409.35-366.44-452.14-408.26-44.38-467.63 348.37-475.29 424.43-0.6 5.95-7.07 9.33-12.31 6.47l-87.7-47.84c-5.18-2.83-7.42-9.08-5.27-14.58 239-614.46-131.47-898.83-131.47-898.83s14.56-55.7 34.36-134.59c115.82 69.29 345.14 260.67 304.47 674.76z"/>
  </clipPath>
  <linearGradient id="linearGradient1593" x2="1" gradientTransform="matrix(59.995 -1964.9 -1964.9 -59.995 5936.4 10641)" gradientUnits="userSpaceOnUse">
   <stop stop-color="#09005d" offset="0"/>
   <stop stop-color="#1a0f91" offset="1"/>
  </linearGradient>
  <clipPath id="clipPath1603">
   <path d="m4917.9 6570c-0.93 0-1.88 0.14-2.82 0.42-94.18 28.25-194.82 0.24-195.83-0.04-5.22-1.49-10.65 1.54-12.13 6.75-1.49 5.22 1.53 10.65 6.75 12.14 4.32 1.24 107.04 29.91 206.85-0.03 5.2-1.56 8.14-7.04 6.58-12.24-1.27-4.25-5.18-7-9.4-7z"/>
  </clipPath>
  <linearGradient id="linearGradient1609" x2="1" gradientTransform="matrix(-88.388 -162.04 -162.04 88.388 4967.7 6855.7)" gradientUnits="userSpaceOnUse">
   <stop stop-color="#ff928e" offset="0"/>
   <stop stop-color="#feb3b1" offset="1"/>
  </linearGradient>
  <clipPath id="clipPath1619">
   <path d="m5419 5934.5c-0.19 11 2.73 22 8.43 31.4 24.39 40.7 95.5 151.5 143.66 147.4 58.93-4.9 309.37-122.7 338.83-137.5 12.31-6.1 22.05-21.7 29.22-37.8 7.84-17.5-9.96-35.7-27.83-28.5l-178.17 71.3s216.07-117.9 240.62-147.4c24.56-29.4-9.82-54-39.29-44.2-29.46 9.9-225.88 127.7-225.88 127.7s211.16-127.7 216.06-162c4.92-34.4-49.1-24.6-98.2 0-49.12 24.5-162.06 93.3-162.06 93.3s142.41-93.3 162.06-117.9c19.63-24.5 4.9-43.6-46.66-41.5-51.56 2.2-208.7 105.4-208.7 105.4l-39.28-39.3s-108.35-80.1-112.81 179.6z"/>
  </clipPath>
  <linearGradient id="linearGradient1625" x2="1" gradientTransform="matrix(-269.99 -914.95 -914.95 269.99 6169.1 7465.1)" gradientUnits="userSpaceOnUse">
   <stop stop-color="#ff928e" offset="0"/>
   <stop stop-color="#feb3b1" offset="1"/>
  </linearGradient>
  <clipPath id="clipPath1635">
   <path d="m7648.2 8328s-4.92 54.02-39.29 68.75c-33.33 14.28-288.22 116.27-482.73 59.81-11.71-3.4-21.68-11.12-28.16-21.45-32.9-52.5-132.89-220.59-83.29-249.52 0 0 0-39.28 49.1-34.37 0 0 39.28-24.56 83.48-9.82 0 0 98.22-9.83 152.23 0 54.02 9.82 44.19 29.46 44.19 29.46s157.15-29.46 230.8 39.29c73.67 68.74 73.67 117.85 73.67 117.85z"/>
  </clipPath>
  <linearGradient id="linearGradient1641" x2="1" gradientTransform="matrix(1730.9 -3830.1 -3830.1 -1730.9 7036.3 8912)" gradientUnits="userSpaceOnUse">
   <stop stop-color="#ff928e" offset="0"/>
   <stop stop-color="#feb3b1" offset="1"/>
  </linearGradient>
  <clipPath id="clipPath1651">
   <path d="m7019.7 8193c-1.11 0-2.23 0.24-3.29 0.77-3.64 1.83-5.11 6.25-3.29 9.88l93.3 186.61c1.82 3.64 6.25 5.11 9.88 3.29 3.64-1.82 5.11-6.24 3.3-9.88l-93.31-186.6c-1.29-2.58-3.89-4.07-6.59-4.07z"/>
  </clipPath>
  <linearGradient id="linearGradient1657" x2="1" gradientTransform="matrix(-196.42 -258.62 -258.62 196.42 7326.8 8636.5)" gradientUnits="userSpaceOnUse">
   <stop stop-color="#ff928e" offset="0"/>
   <stop stop-color="#feb3b1" offset="1"/>
  </linearGradient>
  <clipPath id="clipPath1667">
   <path d="m7073.7 8163.5c-0.99 0-2 0.19-2.96 0.61-3.72 1.64-5.42 5.99-3.78 9.71l88.39 201.34c1.63 3.73 5.97 5.42 9.7 3.78s5.42-5.98 3.79-9.71l-88.4-201.33c-1.21-2.76-3.91-4.4-6.74-4.4z"/>
  </clipPath>
  <linearGradient id="linearGradient1673" x2="1" gradientTransform="matrix(-196.42 -258.63 -258.63 196.42 7370.1 8603.6)" gradientUnits="userSpaceOnUse">
   <stop stop-color="#ff928e" offset="0"/>
   <stop stop-color="#feb3b1" offset="1"/>
  </linearGradient>
  <clipPath id="clipPath1683">
   <path d="m7147.4 8143.9c-1.89 0-3.77 0.72-5.21 2.16l-1.08 1.09c-16.16 16.15-19.53 41.3-8.19 61.14l81.74 143.05c2.03 3.53 6.52 4.76 10.05 2.75 3.54-2.02 4.76-6.52 2.75-10.06l-81.75-143.04c-8.05-14.1-5.66-31.96 5.81-43.43l1.09-1.08c2.87-2.88 2.87-7.54 0-10.42-1.44-1.44-3.33-2.16-5.21-2.16z"/>
  </clipPath>
  <linearGradient id="linearGradient1689" x2="1" gradientTransform="matrix(-196.43 -258.63 -258.63 196.43 7422.8 8563.6)" gradientUnits="userSpaceOnUse">
   <stop stop-color="#ff928e" offset="0"/>
   <stop stop-color="#feb3b1" offset="1"/>
  </linearGradient>
  <clipPath id="clipPath1699">
   <path d="m6455.4 8671c1.15-8.86-125.32-586.39-125.32-586.39l-328.23 79.22 38.55 565.19s395.74 90.44 415-58.02z"/>
  </clipPath>
  <linearGradient id="linearGradient1705" x2="1" gradientTransform="matrix(-557.22 -977.06 -977.06 557.22 6324 8650)" gradientUnits="userSpaceOnUse">
   <stop stop-color="#ff928e" offset="0"/>
   <stop stop-color="#feb3b1" offset="1"/>
  </linearGradient>
  <clipPath id="clipPath1715">
   <path d="m6136.4 8633.9c-13.09-7.42-21.99-20.37-24.18-35.26l-42.96-291.66c-0.65-4.43-0.73-8.85-0.13-13.27 3.31-24.45 20.1-101.4 99.22-80.2 67.42 18.05 129.64 33.74 174.77 24.23 26.35-5.53 42.81-31.84 36.95-58.13-12.07-54.14-38.63-162.89-75.79-256.21-9.32-23.38-35.23-35.45-59.26-27.98-63.44 19.74-186.15 61.99-279.12 118.92-15.26 9.34-24.11 26.27-23.1 44.15 4.41 78.67 15.89 299.23 9.54 362-5.89 58.31-75.04 94.82-108.03 109.04-12.53 5.39-22.18 15.64-26.75 28.49-13.72 38.53-27.7 117.92 71.95 151.28 24.78 8.29 37.98 35.57 30.19 60.51-13.93 44.7-16.15 108.95 64.7 143.81 81.86 35.29 142.9-5.56 177.54-41.82 15.34-16.05 39.96-21.29 59.5-10.78 8.69 4.67 19.37 5.99 31.86-0.61 23.53-12.45 51.91-4.85 64.51 18.6 21.61 40.22 63.62 81.04 143.87 66.11 147.2-27.38 161.58-191.13 121.28-286.39-40.29-95.26-198.19-56.5-276.98-7.06-57.87 36.31-133.5 2.66-169.58-17.77z"/>
  </clipPath>
  <linearGradient id="linearGradient1721" x2="1" gradientTransform="matrix(803.45 104.2 104.2 -803.45 5838 8369.7)" gradientUnits="userSpaceOnUse">
   <stop stop-color="#09005d" offset="0"/>
   <stop stop-color="#1a0f91" offset="1"/>
  </linearGradient>
  <clipPath id="clipPath1731">
   <path d="m5937.5 8312.6s63.1 169.01 1.37 211.5c-61.74 42.49-154.35 22.21-135.78-101.14 23.09-153.43 134.41-110.36 134.41-110.36z"/>
  </clipPath>
  <linearGradient id="linearGradient1737" x2="1" gradientTransform="matrix(-479.98 -314.98 -314.98 479.98 6920.5 9101.1)" gradientUnits="userSpaceOnUse">
   <stop stop-color="#ff928e" offset="0"/>
   <stop stop-color="#feb3b1" offset="1"/>
  </linearGradient>
  <clipPath id="clipPath1747">
   <path d="m16183 3432.7-4899.3 228.2 1191.2 301.4h3720.4c126.3 0 235-89.1 259.8-213 33.8-168.9-100-324.6-272.1-316.6z"/>
  </clipPath>
  <linearGradient id="linearGradient1755" x2="1" gradientTransform="matrix(-17263 -2016.1 -2016.1 17263 19154 4259.2)" gradientUnits="userSpaceOnUse">
   <stop stop-color="#09005d" offset="0"/>
   <stop stop-color="#1a0f91" offset="1"/>
  </linearGradient>
  <clipPath id="clipPath1765">
   <path d="m11940 1450.6h-1939.8c-295.5 0-535.03 239.6-535.03 535v1976.7h3009.8v-1976.7c0-295.4-239.5-535-535-535z"/>
  </clipPath>
  <linearGradient id="linearGradient1771" x2="1" gradientTransform="matrix(509.98 2024.9 2024.9 -509.98 10606 1493.2)" gradientUnits="userSpaceOnUse">
   <stop stop-color="#09005d" offset="0"/>
   <stop stop-color="#1a0f91" offset="1"/>
  </linearGradient>
  <clipPath id="clipPath1781">
   <path d="m12475 3944.6c0-136.5-674.9-247.2-1507.4-247.2s-1507.4 110.7-1507.4 247.2c0 136.6 674.9 247.3 1507.4 247.3s1507.4-110.7 1507.4-247.3z"/>
  </clipPath>
  <linearGradient id="linearGradient1787" x2="1" gradientTransform="matrix(89.997 3044.8 3044.8 -89.997 10957 3582.8)" gradientUnits="userSpaceOnUse">
   <stop stop-color="#09005d" offset="0"/>
   <stop stop-color="#1a0f91" offset="1"/>
  </linearGradient>
  <clipPath id="clipPath1797">
   <path d="m9580.8 3919.2s455.9-177.2 1310.9-181.7c854.9-4.6 1444.8 181.7 1444.8 181.7s-971.2 1220-1325.2 1234.4c-354.1 14.3-1430.5-1234.4-1430.5-1234.4z"/>
  </clipPath>
  <linearGradient id="linearGradient1803" x2="1" gradientTransform="matrix(2755.7 0 0 -2755.7 9580.8 4445.5)" gradientUnits="userSpaceOnUse">
   <stop stop-color="#fe7062" offset="0"/>
   <stop stop-color="#ff928e" offset="1"/>
  </linearGradient>
 </defs>
 <g transform="matrix(1.3333 0 0 -1.3333 0 2200)">
  <g transform="scale(.1)">
   <g clip-path="url(#clipPath855)">
    <g transform="scale(1.4047)">
     <path d="m14396 1747.1v615.73c846.8 686.36 1263.2 1574.3 1441.6 2453.9 96.7-187.09 203.7-404.61 317.2-662.89 520.2-1184.1-428-2234.8-1758.8-2406.7m-12273 1848.5c-519.41 329.19-865.14 631.96-1076.7 910.68 413.19-179.33 758.85-517.78 1076.7-910.68m1168.6 475.34c-820.1 440.89-1607 515.71-2046.6 515.71-104.52 0-189.49-4.27-250.54-8.82-909.62 1323.5 1224.7 2088.6 2008.1 2535.8-168.11-898.07-199.63-2021.3 289.09-3042.7m2062.6 1696c-386.67 958.26-883.8 1927-1510.4 2708.9-55.84 69.67-136.4 102.58-216.56 102.58-110.47 0-220.19-62.48-263.51-177.43-31.63-83.97-65.57-178.69-100.28-283.12-168.63 561.81-443.51 1229.8 270.33 1801.7 538.55 431.4 1066 599.3 1553 599.3 825.47 0 1534.1-482.9 1980-983.81h-361.71c-16.71 0-30.25-13.55-30.25-30.26v-64.38h-171.66c-47.09 0-85.27-38.18-85.27-85.28v-647.44c0-24.91 20.19-45.11 45.1-45.11h76.54c-38.29-82.94-120.66-140.37-216.14-140.37-501.38 0-969.2-658.22-969.2-1211.6v-1543.7m8350 272.6c538.2 1161.5 275.3 2474.1 29.9 3241.3 243.6 79.87 469.2 115.83 676.3 115.83 1375.5 0 1930.7-1587.1 1475.7-2416.2-45.1 345.62-106.6 644.47-161.7 871.77-33.8 139.55-161.2 222.2-290.6 222.2-72.3 0-145.1-25.78-202.7-81.84-573.8-559.44-1083.5-1240.6-1526.9-1953.1m-1986.3 660.06v611.03c0 207.9-66 430.61-175.1 627.64 295.9 161.68 606.3 367.19 930.2 623.51 28 22.05 55.9 43.75 83.4 64.81-343.5-621.08-620.1-1293.5-838.5-1927" fill="url(#linearGradient863)"/>
    </g>
   </g>
   <path d="m9141.2 2375.1s-966.56 6069-3741 9530.5c-186.51 232.7-569.33 173.5-674.33-105.1-702.09-1863.3-2228.5-7555.7 4415.3-9425.4" fill="#bdd0fb"/>
   <path d="m7521.9 3893.6c-878.07 1174.8-1994.3 3218.1-2344.5 6192.4-0.95 8.1 5.79 12.9 12.31 12.9 4.93 0 9.74-2.7 11.02-8.8 180.72-858.85 846.64-3632.5 2321.2-5931.6v-264.9" fill="#dee8fd"/>
   <g clip-path="url(#clipPath877)">
    <g transform="scale(1.0099)">
     <path d="m15720 1686.1h-7543.4c53.22 3.46 101.83 7.23 145.24 10.99 110.92 9.6 170.36 135.17 107.67 227.16-164.45 241.22-486.02 683.86-980.95 1243.3v7001.1c0 769.6 650.7 1685.2 1348.1 1685.2 132.8 0 247.37 79.9 300.63 195.2h5554.1c53.1-115.3 167.8-195.2 300.6-195.2 435.3 0 852.5-356.8 1104.5-812.2 151.7-274.1 243.6-583.8 243.6-873v-849.94c-2.3-6.41-4.5-12.92-6.7-19.32v522.34h-4313v344.82c0 159.2-129.4 285.9-285.4 285.9-8.5 0-17.1-0.4-25.7-1.2l-2458.4-218c-147.51-13.1-260.61-136.7-260.61-284.8v-126.72h-1495.2v-3499.2h1495.2v-3710.6c0-157.84 127.99-285.88 285.88-285.88h2458.3c157.9 0 285.9 128.04 285.9 285.88v3710.6h1938v-4211.3c0-209.54 179.1-406 400.1-406h1533.8c-42.5-12.58-86.7-19.21-132.3-19.21m-6484.4 9759.1c-100.92 0-191.74-61.2-229.57-154.8l-37.4-92.5c-66.08-163.5 54.85-340.4 229.14-340.4 3.13 0 6.3 0 9.46 0.1l2534.5 92.6c133.2 4.8 238.6 114.2 238.6 247.4 0 136.8-110.8 247.6-247.6 247.6h-2497.2" fill="url(#linearGradient885)"/>
    </g>
   </g>
   <g clip-path="url(#clipPath895)">
    <g transform="scale(1.0094)">
     <path d="m13924 6325.2h-1938.8v3500.7h4314.8v-522.56c-152.1-442.45-283.7-871.14-396.5-1270.1h-736.3c-46.1 0-83.4-32.89-83.4-73.46v-23.16c0.4-111.79-102.5-202.67-229.4-202.67-481.3 0-930.4-542.78-930.4-999.07v-409.68m-4970.1 0h-1495.8v3500.7h1495.8v-3500.7" fill="url(#linearGradient903)"/>
    </g>
   </g>
   <g clip-path="url(#clipPath913)">
    <path d="m14606 13260h-5228.7v90.4c0 23.5 19.02 42.5 42.5 42.5h5143.7c23.5 0 42.5-19 42.5-42.5v-90.4" fill="url(#linearGradient919)"/>
   </g>
   <g clip-path="url(#clipPath929)">
    <path d="m14903 12168h-5823.8c-34.99 0-63.36 28.4-63.36 63.4v909.4c0 66.2 53.63 119.8 119.78 119.8h5710.9c66.2 0 119.8-53.6 119.8-119.8v-909.4c0-35-28.3-63.4-63.3-63.4m-564.1 936.7c-20.5 0-37.2-16.7-37.2-37.2v-718.8c0-20.5 16.7-37.2 37.2-37.2h139.3c20.5 0 37.2 16.7 37.2 37.2v718.8c0 20.5-16.7 37.2-37.2 37.2h-139.3m-439.5 0c-20.6 0-37.2-16.7-37.2-37.2v-718.8c0-20.5 16.6-37.2 37.2-37.2h139.2c20.6 0 37.2 16.7 37.2 37.2v718.8c0 20.5-16.6 37.2-37.2 37.2h-139.2m-439.6 0c-20.5 0-37.2-16.7-37.2-37.2v-718.8c0-20.5 16.7-37.2 37.2-37.2h139.3c20.5 0 37.2 16.7 37.2 37.2v718.8c0 20.5-16.7 37.2-37.2 37.2h-139.3m-439.5 0c-20.6 0-37.2-16.7-37.2-37.2v-718.8c0-20.5 16.6-37.2 37.2-37.2h139.3c20.5 0 37.2 16.7 37.2 37.2v718.8c0 20.5-16.7 37.2-37.2 37.2h-139.3m-439.6 0c-20.5 0-37.2-16.7-37.2-37.2v-718.8c0-20.5 16.7-37.2 37.2-37.2h139.3c20.6 0 37.2 16.7 37.2 37.2v718.8c0 20.5-16.6 37.2-37.2 37.2h-139.3m-439.5 0c-20.6 0-37.2-16.7-37.2-37.2v-718.8c0-20.5 16.6-37.2 37.2-37.2h139.3c20.5 0 37.2 16.7 37.2 37.2v718.8c0 20.5-16.7 37.2-37.2 37.2h-139.3m-439.6 0c-20.5 0-37.2-16.7-37.2-37.2v-718.8c0-20.5 16.7-37.2 37.2-37.2h139.3c20.6 0 37.2 16.7 37.2 37.2v718.8c0 20.5-16.6 37.2-37.2 37.2h-139.3m-439.5 0c-20.5 0-37.2-16.7-37.2-37.2v-718.8c0-20.5 16.7-37.2 37.2-37.2h139.3c20.5 0 37.2 16.7 37.2 37.2v718.8c0 20.5-16.7 37.2-37.2 37.2h-139.3m-439.5 0c-20.6 0-37.2-16.7-37.2-37.2v-718.8c0-20.5 16.6-37.2 37.2-37.2h139.3c20.5 0 37.1 16.7 37.1 37.2v718.8c0 20.5-16.6 37.2-37.1 37.2h-139.3m-439.6 0c-20.5 0-37.2-16.7-37.2-37.2v-718.8c0-20.5 16.7-37.2 37.2-37.2h139.3c20.5 0 37.2 16.7 37.2 37.2v718.8c0 20.5-16.7 37.2-37.2 37.2h-139.3m-439.53 0c-20.53 0-37.19-16.7-37.19-37.2v-718.8c0-20.5 16.66-37.2 37.19-37.2h139.33c20.5 0 37.1 16.7 37.1 37.2v718.8c0 20.5-16.6 37.2-37.1 37.2h-139.33m-439.54 0c-20.54 0-37.19-16.7-37.19-37.2v-718.8c0-20.5 16.65-37.2 37.19-37.2h139.29c20.54 0 37.19 16.7 37.19 37.2v718.8c0 20.5-16.65 37.2-37.19 37.2h-139.29" fill="url(#linearGradient935)"/>
   </g>
   <g clip-path="url(#clipPath945)"/>
   <g clip-path="url(#clipPath955)"/>
   <g clip-path="url(#clipPath965)"/>
   <g clip-path="url(#clipPath975)"/>
   <g clip-path="url(#clipPath985)"/>
   <g clip-path="url(#clipPath995)"/>
   <g clip-path="url(#clipPath1005)"/>
   <g clip-path="url(#clipPath1015)"/>
   <g clip-path="url(#clipPath1025)"/>
   <g clip-path="url(#clipPath1035)"/>
   <g clip-path="url(#clipPath1045)"/>
   <g clip-path="url(#clipPath1055)"/>
   <g clip-path="url(#clipPath1065)">
    <path d="m9288.4 10964c-176.01 0-298.13 178.7-231.4 343.8l37.77 93.4c38.2 94.5 129.92 156.4 231.83 156.4h2521.8c138.1 0 250-112 250-250.1 0-134.5-106.4-245-240.9-249.9l-2559.6-93.4c-3.19-0.1-6.39-0.2-9.55-0.2" fill="url(#linearGradient1071)"/>
   </g>
   <g clip-path="url(#clipPath1081)">
    <path d="m11810 2349h-2482.5c-159.45 0-288.7 129.3-288.7 288.7v3747.2h3059.9v-3747.2c0-159.4-129.2-288.7-288.7-288.7m288.7 7569.6h-3059.9v127.99c0 149.5 114.21 274.3 263.18 287.6l2482.5 220.2c8.7 0.7 17.4 1.1 26 1.1 157.5 0 288.2-127.9 288.2-288.7v-348.19" fill="url(#linearGradient1071)"/>
   </g>
   <g clip-path="url(#clipPath1097)">
    <path d="m9038.5 6384.9h3059.9v3533.7h-3059.9z" fill="url(#linearGradient1103)"/>
   </g>
   <path d="m1376.4 6368.3c-31.5 12.1-25.01 58.4 8.64 61.1 537.17 41.8 2511.8 76.66 4279.5-1420.6 1617.3-1369.8 2527.6-2595.9 2847.9-3065.6 63.31-92.9 3.28-219.7-108.73-229.4-663.85-57.4-2531.1-121-3498.3 844.4-1155.9 1153.6-2025.7 3231.1-3529 3810.1" fill="#bdd0fb"/>
   <path d="m8378.4 1901.4s-3653.4 3351.8-5284.2 3842.9c0 0 1835.3-325.1 5284.2-3842.9" fill="#dee8fd"/>
   <g transform="scale(1.2876)">
    <path d="m12032 4403.1s620.8 3898.4 2403 6122c119.8 149.5 365.7 111.5 433.2-67.5 451-1196.9 1431.5-4853.5-2836.2-6054.5" fill="#91b3fa"/>
   </g>
   <g transform="scale(1.1516)">
    <path d="m15263 7041.5h-169.6c729.4 1433.6 1080.7 2907.1 1189 3422.1 0.9 4.4 4.4 6.3 7.9 6.3 4.7 0 9.6-3.4 8.9-9.3-169.4-1438.3-588.1-2573.4-1036.2-3419.1" fill="#c8d9fd"/>
   </g>
   <g transform="scale(1.4386)">
    <path d="m11294 1199s1248.2 4333.1 3579 6605.2c156.7 152.74 430.2 75.29 481.7-137.06 344.2-1419.9 945.4-5702.2-4060.7-6468.2" fill="#bdd0fb"/>
   </g>
   <g transform="scale(1.3127)">
    <path d="m15405 4637.9v379.54c461.4 916.71 751.8 1706.8 875 2066.7 1.5 4.2 4.8 6.02 8.4 6.02 5.6 0 11.5-4.68 9.8-11.61-230.6-943.38-545.7-1753.7-893.2-2440.7" fill="#dee8fd"/>
   </g>
   <g transform="scale(1.2406)">
    <path d="m15543 6292.8c-103.3 0-187 73.94-186.7 164.9v18.84c0 33.02-30.3 59.78-67.8 59.78h-2947.4c-37.5 0-67.9-26.76-67.9-59.78v-18.84c0.3-90.96-83.4-164.9-186.6-164.9-391.7 0-757.1-441.64-757.1-812.91v-3761.3c0-170.57 145.8-330.49 325.8-330.49h4319c179.9 0 325.7 159.92 325.7 330.49v3761.3c0 371.27-365.4 812.91-757 812.91" fill="#7d97f4"/>
   </g>
   <g clip-path="url(#clipPath1137)">
    <g transform="scale(1.2403)">
     <path d="m16300 3625.5h-2855.8v1688.3h2855.8v-1688.3m-4271 0h-693.1v1688.3h707.7c-9.4-18.27-14.6-38.91-14.6-60.7v-1627.6" fill="url(#linearGradient1145)"/>
    </g>
   </g>
   <g clip-path="url(#clipPath1155)">
    <g transform="scale(1.1621)">
     <path d="m16263 7128.1h-3030.7c-20.2 0-36.6 16.37-36.6 36.57v242.21c0 20.2 16.4 36.57 36.6 36.57h3030.7c20.2 0 36.6-16.37 36.6-36.57v-242.21c0-20.2-16.4-36.57-36.6-36.57" fill="url(#linearGradient1163)"/>
    </g>
   </g>
   <g clip-path="url(#clipPath1173)">
    <g transform="scale(1.1774)">
     <path d="m16246 6730.1h-3378.9c-29.7 0-53.9 24.09-53.9 53.82v394.36c0 56.2 45.6 101.75 101.8 101.75h3283.1c56.1 0 101.7-45.55 101.7-101.75v-394.36c0-29.73-24.1-53.82-53.8-53.82" fill="url(#linearGradient1181)"/>
    </g>
   </g>
   <g clip-path="url(#clipPath1191)">
    <path d="m15511 8008.9h-80.4c-18.5 0-33.5 14.98-33.5 33.46v403.08c0 18.48 15 33.47 33.5 33.47h80.4c18.5 0 33.5-14.99 33.5-33.47v-403.08c0-18.48-15-33.46-33.5-33.46" fill="url(#linearGradient1197)"/>
   </g>
   <g clip-path="url(#clipPath1207)">
    <path d="m15814 8008.9h-80.4c-18.5 0-33.5 14.98-33.5 33.46v403.08c0 18.48 15 33.47 33.5 33.47h80.4c18.5 0 33.5-14.99 33.5-33.47v-403.08c0-18.48-15-33.46-33.5-33.46" fill="url(#linearGradient1213)"/>
   </g>
   <g clip-path="url(#clipPath1223)">
    <path d="m16118 8008.9h-80.5c-18.5 0-33.5 14.98-33.5 33.46v403.08c0 18.48 15 33.47 33.5 33.47h80.5c18.5 0 33.4-14.99 33.4-33.47v-403.08c0-18.48-14.9-33.46-33.4-33.46" fill="url(#linearGradient1229)"/>
   </g>
   <g clip-path="url(#clipPath1239)">
    <g transform="scale(1.0095)">
     <path d="m16267 7933.8h-79.7c-18.4 0-33.1 14.84-33.1 33.14v399.31c0 18.3 14.7 33.15 33.1 33.15h79.7c18.3 0 33.1-14.85 33.1-33.15v-399.31c0-18.3-14.8-33.14-33.1-33.14" fill="url(#linearGradient1247)"/>
    </g>
   </g>
   <g clip-path="url(#clipPath1257)">
    <g transform="scale(1.0281)">
     <path d="m16267 7790.2h-78.3c-18 0-32.5 14.57-32.5 32.55v392.07c0 17.98 14.5 32.56 32.5 32.56h78.3c18 0 32.6-14.58 32.6-32.56v-392.07c0-17.98-14.6-32.55-32.6-32.55" fill="url(#linearGradient1265)"/>
    </g>
   </g>
   <g clip-path="url(#clipPath1275)">
    <g transform="scale(1.0467)">
     <path d="m16268 7651.7h-76.9c-17.6 0-31.9 14.31-31.9 31.97v385.1c0 17.66 14.3 31.98 31.9 31.98h76.9c17.7 0 32-14.32 32-31.99v-385.09c0-17.66-14.3-31.97-32-31.97" fill="url(#linearGradient1283)"/>
    </g>
   </g>
   <g clip-path="url(#clipPath1293)">
    <g transform="scale(1.0653)">
     <path d="m16269 7518.1h-75.5c-17.4 0-31.5 14.06-31.5 31.41v378.38c0 17.34 14.1 31.42 31.5 31.42h75.5c17.3 0 31.4-14.08 31.4-31.42v-378.38c0-17.35-14.1-31.41-31.4-31.41" fill="url(#linearGradient1301)"/>
    </g>
   </g>
   <g clip-path="url(#clipPath1311)">
    <g transform="scale(1.0839)">
     <path d="m16269 7389.1h-74.2c-17.1 0-30.9 13.82-30.9 30.88v371.88c0 17.05 13.8 30.88 30.9 30.88h74.2c17.1 0 30.9-13.83 30.9-30.88v-371.88c0-17.06-13.8-30.88-30.9-30.88" fill="url(#linearGradient1319)"/>
    </g>
   </g>
   <g clip-path="url(#clipPath1329)">
    <g transform="scale(1.1025)">
     <path d="m16270 7264.4h-73c-16.8 0-30.4 13.59-30.4 30.35v365.62c0 16.76 13.6 30.36 30.4 30.36h73c16.7 0 30.3-13.6 30.3-30.36v-365.62c0-16.76-13.6-30.35-30.3-30.35" fill="url(#linearGradient1337)"/>
    </g>
   </g>
   <g clip-path="url(#clipPath1347)">
    <g transform="scale(1.1211)">
     <path d="m16270 7143.9h-71.8c-16.5 0-29.9 13.36-29.9 29.85v359.54c0 16.49 13.4 29.86 29.9 29.86h71.8c16.5 0 29.8-13.37 29.8-29.86v-359.54c0-16.49-13.3-29.85-29.8-29.85" fill="url(#linearGradient1355)"/>
    </g>
   </g>
   <g clip-path="url(#clipPath1365)">
    <g transform="scale(1.1397)">
     <path d="m16271 7027.2h-70.6c-16.3 0-29.3 13.15-29.3 29.36v353.68c0 16.21 13 29.37 29.3 29.37h70.6c16.2 0 29.4-13.16 29.4-29.37v-353.68c0-16.21-13.2-29.36-29.4-29.36" fill="url(#linearGradient1373)"/>
    </g>
   </g>
   <g clip-path="url(#clipPath1383)">
    <g transform="scale(1.1583)">
     <path d="m16271 6914.4h-69.5c-15.9 0-28.9 12.93-28.9 28.89v348c0 15.95 13 28.89 28.9 28.89h69.5c15.9 0 28.9-12.94 28.9-28.89v-348c0-15.96-13-28.89-28.9-28.89" fill="url(#linearGradient1391)"/>
    </g>
   </g>
   <g transform="scale(1.023)">
    <path d="m14724 6883.7c-98.8 0-167.3 100.23-129.9 192.79l21.3 52.4c21.4 52.99 72.8 87.67 130 87.67h1414c77.4 0 140.2-62.78 140.2-140.22 0-75.46-59.6-137.38-135.1-140.13l-1435.3-52.41c-1.7-0.06-3.5-0.1-5.2-0.1" fill="#bdcaf9"/>
   </g>
   <g transform="scale(1.023)">
    <path d="m16138 2052.6h-1392c-89.5 0-161.9 72.53-161.9 161.87v2181.2h1715.8v-2181.2c0-89.34-72.4-161.87-161.9-161.87m161.9 4390h-1698.1c24.5 48.16 72.6 82.6 129.9 87.68l1392.1 123.48c4.8 0.43 9.7 0.65 14.5 0.65 88.4 0 161.6-71.74 161.6-161.91v-49.9" fill="#bdcaf9"/>
   </g>
   <g clip-path="url(#clipPath1409)">
    <g transform="scale(1.023)">
     <path d="m16300 4395.6h-1715.8v1973.4c0 26.42 6.3 51.45 17.7 73.59h1698.1v-2046.9" fill="url(#linearGradient1417)"/>
    </g>
   </g>
   <g clip-path="url(#clipPath1427)">
    <path d="m6643.2 2080.8s-27.76-157.2-41.37-312.8c-5.32-60.8 41.55-113.6 102.54-116.1 207.19-8.7 650.39-25.4 809.42-18.3 23.9 1 39.53 25.5 30.69 47.7-7.42 18.7-21.71 33.7-39.93 42.1l-732.08 336.5-129.27 20.9" fill="url(#linearGradient1433)"/>
   </g>
   <g clip-path="url(#clipPath1443)">
    <path d="m6620.5 2173.1 22.31-188s128.24-59.7 215.81 7.5l-53.11 209.5-185.01-29" fill="url(#linearGradient1449)"/>
   </g>
   <g clip-path="url(#clipPath1459)">
    <path d="m6637.2 5707.6c-9.63-49.1-51.72-2450 204.92-3525.9 4.19-17.6-4.71-35.6-21.42-42.5-39.36-16.1-116.53-39.3-209.01-42.5-28.63-0.9-54.31 17.7-62.4 45.2-73.35 249.6-424.87 1500.3-470.73 2695.1-51.24 1335 0 45.4 0 45.4l30.05 825.3 528.59-0.1" fill="url(#linearGradient1465)"/>
   </g>
   <g clip-path="url(#clipPath1475)">
    <path d="m5801.1 1998.8s-44.19-79.4-86.97-290.2c-7.73-38.1 18.87-74.5 57.54-78.3 68.41-6.8 173.74-15.4 258.11-14.8 38.89 0.2 69.24 34.1 64.55 72.7-9.34 77-38.46 203.2-128.4 301.6l-164.83 9" fill="url(#linearGradient1481)"/>
   </g>
   <g clip-path="url(#clipPath1491)">
    <path d="m5762.3 2240.6 52.12-284.3s51.53-38.4 153.48-10.6l-24.88 305.9-180.72-11" fill="url(#linearGradient1497)"/>
   </g>
   <g clip-path="url(#clipPath1507)">
    <path d="m5547.6 5691c-209.88-1266.7 119.45-3187.9 205.59-3552.7 5.27-22.4 23.3-39.5 45.94-43.3 38.45-6.3 101.76-11.5 164.17 6.6 21.51 6.3 36.61 25.6 37.49 48 11.55 295-9.25 2105.8 186.32 2821.4 9.91 36.3 32.07 67.9 62.71 89.7l379.59 269.9 16.59 360.4h-1098.4" fill="url(#linearGradient1513)"/>
   </g>
   <g clip-path="url(#clipPath1523)">
    <path d="m7068.8 8190.5c4.91-4.91-78.57-44.19-73.66-78.57 4.91-34.37 4.91-68.75 39.29-63.84 34.37 4.92 176.78 112.94 176.78 112.94l-142.41 29.47" fill="url(#linearGradient1529)"/>
   </g>
   <g clip-path="url(#clipPath1539)">
    <path d="m5438.5 6741.9-103.12 186.61s-93.3-216.07-392.85-348.66c0 0 78.57-19.63 147.32-132.54 68.75-113 412.49-540.2 412.49-540.2l-19.64-142.4s-435.91 14.5-751.33 206.2c-250.44 152.3-274.99 334-274.99 334s-117.86 9.8-142.41 117.8c-24.55 108.04 39.29 211.17 39.29 211.17s-78.58 658.01 623.65 928.1c0 0 103.12 245.53 383.02 216.07l314.28 162.05 628.56 14.73 353.57-108.03s108.03 0 162.05-68.75c0 0 621.19 110.49 908.47-441.96 0 0-104.72 223.88-103.6 550.87 0.44 127.1-28.47 252.61-83.01 367.42l93.3 108.03s397.76-530.35 510.71-800.43c112.94-270.09 44.19-495.97 44.19-495.97s49.11-108.03-44.19-211.16c0 0-63.84-68.75-176.78-24.55 0 0-235.72-93.31-441.96-68.76-145.02 17.27-319.17 134.08-409.79 201.91-38.63 28.91-87.87 39.46-135.13 29.69-74.65-15.41-193.38-29.68-294.8 4.12l-1247.3-255.36" fill="url(#linearGradient1545)"/>
   </g>
   <g clip-path="url(#clipPath1555)">
    <path d="m5833.8 8472.9c0-4.91-179.24-601.55-179.24-601.55s412.49-54.02 667.85 19.65l-132.59 437.04-356.02 144.86" fill="url(#linearGradient1561)"/>
   </g>
   <g clip-path="url(#clipPath1571)">
    <path d="m6527.9 7881.4c-5.21-101.41-30.58-689.25 234.73-900.99l-116.68-1389.2c-183.07-99.9-682.34-133.2-1115-33.3 0 0-33.54 614.4-58.09 776.4-24.55 162.1-137.5 594.2-137.5 594.2s370.47 284.37 131.47 898.83c-2.15 5.5 0.09 11.75 5.27 14.58l87.7 47.84c5.24 2.86 11.71-0.52 12.31-6.47 7.66-76.06 67.03-468.81 475.29-424.43 393.65 42.79 377.19 368.92 366.44 452.14-1.17 9.03 7.35 16.25 16.09 13.7l84.76-24.73c8.2-2.39 13.69-10.09 13.25-18.61" fill="url(#linearGradient1577)"/>
   </g>
   <g clip-path="url(#clipPath1587)">
    <path d="m5674.2 7468.7s121.97-134.61 373.21-112.95c284.82 24.55 378.12 216.08 378.12 216.08s20.92-506.46 328.04-699.96c7.29 60.06 9.11 108.52 9.11 108.52-265.31 211.74-239.94 799.58-234.73 900.99 0.44 8.52-5.05 16.22-13.25 18.61l-84.76 24.73c-8.74 2.55-17.26-4.67-16.09-13.7 10.75-83.22 27.21-409.35-366.44-452.14-408.26-44.38-467.63 348.37-475.29 424.43-0.6 5.95-7.07 9.33-12.31 6.47l-87.7-47.84c-5.18-2.83-7.42-9.08-5.27-14.58 239-614.46-131.47-898.83-131.47-898.83s14.56-55.7 34.36-134.59c115.82 69.29 345.14 260.67 304.47 674.76" fill="url(#linearGradient1593)"/>
   </g>
   <g clip-path="url(#clipPath1603)">
    <path d="m4917.9 6570c-0.93 0-1.88 0.14-2.82 0.42-94.18 28.25-194.82 0.24-195.83-0.04-5.22-1.49-10.65 1.54-12.13 6.75-1.49 5.22 1.53 10.65 6.75 12.14 4.32 1.24 107.04 29.91 206.85-0.03 5.2-1.56 8.14-7.04 6.58-12.24-1.27-4.25-5.18-7-9.4-7" fill="url(#linearGradient1609)"/>
   </g>
   <g clip-path="url(#clipPath1619)">
    <path d="m5419 5934.5c-0.19 11 2.73 22 8.43 31.4 24.39 40.7 95.5 151.5 143.66 147.4 58.93-4.9 309.37-122.7 338.83-137.5 12.31-6.1 22.05-21.7 29.22-37.8 7.84-17.5-9.96-35.7-27.83-28.5l-178.17 71.3s216.07-117.9 240.62-147.4c24.56-29.4-9.82-54-39.29-44.2-29.46 9.9-225.88 127.7-225.88 127.7s211.16-127.7 216.06-162c4.92-34.4-49.1-24.6-98.2 0-49.12 24.5-162.06 93.3-162.06 93.3s142.41-93.3 162.06-117.9c19.63-24.5 4.9-43.6-46.66-41.5-51.56 2.2-208.7 105.4-208.7 105.4l-39.28-39.3s-108.35-80.1-112.81 179.6" fill="url(#linearGradient1625)"/>
   </g>
   <g clip-path="url(#clipPath1635)">
    <path d="m7648.2 8328s-4.92 54.02-39.29 68.75c-33.33 14.28-288.22 116.27-482.73 59.81-11.71-3.4-21.68-11.12-28.16-21.45-32.9-52.5-132.89-220.59-83.29-249.52 0 0 0-39.28 49.1-34.37 0 0 39.28-24.56 83.48-9.82 0 0 98.22-9.83 152.23 0 54.02 9.82 44.19 29.46 44.19 29.46s157.15-29.46 230.8 39.29c73.67 68.74 73.67 117.85 73.67 117.85" fill="url(#linearGradient1641)"/>
   </g>
   <g clip-path="url(#clipPath1651)">
    <path d="m7019.7 8193c-1.11 0-2.23 0.24-3.29 0.77-3.64 1.83-5.11 6.25-3.29 9.88l93.3 186.61c1.82 3.64 6.25 5.11 9.88 3.29 3.64-1.82 5.11-6.24 3.3-9.88l-93.31-186.6c-1.29-2.58-3.89-4.07-6.59-4.07" fill="url(#linearGradient1657)"/>
   </g>
   <g clip-path="url(#clipPath1667)">
    <path d="m7073.7 8163.5c-0.99 0-2 0.19-2.96 0.61-3.72 1.64-5.42 5.99-3.78 9.71l88.39 201.34c1.63 3.73 5.97 5.42 9.7 3.78s5.42-5.98 3.79-9.71l-88.4-201.33c-1.21-2.76-3.91-4.4-6.74-4.4" fill="url(#linearGradient1673)"/>
   </g>
   <g clip-path="url(#clipPath1683)">
    <path d="m7147.4 8143.9c-1.89 0-3.77 0.72-5.21 2.16l-1.08 1.09c-16.16 16.15-19.53 41.3-8.19 61.14l81.74 143.05c2.03 3.53 6.52 4.76 10.05 2.75 3.54-2.02 4.76-6.52 2.75-10.06l-81.75-143.04c-8.05-14.1-5.66-31.96 5.81-43.43l1.09-1.08c2.87-2.88 2.87-7.54 0-10.42-1.44-1.44-3.33-2.16-5.21-2.16" fill="url(#linearGradient1689)"/>
   </g>
   <g clip-path="url(#clipPath1699)">
    <path d="m6455.4 8671c1.15-8.86-125.32-586.39-125.32-586.39l-328.23 79.22 38.55 565.19s395.74 90.44 415-58.02" fill="url(#linearGradient1705)"/>
   </g>
   <g clip-path="url(#clipPath1715)">
    <path d="m6136.4 8633.9c-13.09-7.42-21.99-20.37-24.18-35.26l-42.96-291.66c-0.65-4.43-0.73-8.85-0.13-13.27 3.31-24.45 20.1-101.4 99.22-80.2 67.42 18.05 129.64 33.74 174.77 24.23 26.35-5.53 42.81-31.84 36.95-58.13-12.07-54.14-38.63-162.89-75.79-256.21-9.32-23.38-35.23-35.45-59.26-27.98-63.44 19.74-186.15 61.99-279.12 118.92-15.26 9.34-24.11 26.27-23.1 44.15 4.41 78.67 15.89 299.23 9.54 362-5.89 58.31-75.04 94.82-108.03 109.04-12.53 5.39-22.18 15.64-26.75 28.49-13.72 38.53-27.7 117.92 71.95 151.28 24.78 8.29 37.98 35.57 30.19 60.51-13.93 44.7-16.15 108.95 64.7 143.81 81.86 35.29 142.9-5.56 177.54-41.82 15.34-16.05 39.96-21.29 59.5-10.78 8.69 4.67 19.37 5.99 31.86-0.61 23.53-12.45 51.91-4.85 64.51 18.6 21.61 40.22 63.62 81.04 143.87 66.11 147.2-27.38 161.58-191.13 121.28-286.39-40.29-95.26-198.19-56.5-276.98-7.06-57.87 36.31-133.5 2.66-169.58-17.77" fill="url(#linearGradient1721)"/>
   </g>
   <g clip-path="url(#clipPath1731)">
    <path d="m5937.5 8312.6s63.1 169.01 1.37 211.5c-61.74 42.49-154.35 22.21-135.78-101.14 23.09-153.43 134.41-110.36 134.41-110.36" fill="url(#linearGradient1737)"/>
   </g>
   <g clip-path="url(#clipPath1747)">
    <g transform="scale(1.0099)">
     <path d="m16025 3399.1-4851.4 225.97 1179.6 298.46h3684c125.1 0 232.7-88.23 257.3-210.92 33.4-167.25-99.1-321.43-269.5-313.51" fill="url(#linearGradient1755)"/>
    </g>
   </g>
   <g clip-path="url(#clipPath1765)">
    <path d="m11940 1450.6h-1939.8c-295.5 0-535.03 239.6-535.03 535v1976.7h3009.8v-1976.7c0-295.4-239.5-535-535-535" fill="url(#linearGradient1771)"/>
   </g>
   <g clip-path="url(#clipPath1781)">
    <path d="m12475 3944.6c0-136.5-674.9-247.2-1507.4-247.2s-1507.4 110.7-1507.4 247.2c0 136.6 674.9 247.3 1507.4 247.3s1507.4-110.7 1507.4-247.3" fill="url(#linearGradient1787)"/>
   </g>
   <g clip-path="url(#clipPath1797)">
    <path d="m9580.8 3919.2s455.9-177.2 1310.9-181.7c854.9-4.6 1444.8 181.7 1444.8 181.7s-971.2 1220-1325.2 1234.4c-354.1 14.3-1430.5-1234.4-1430.5-1234.4" fill="url(#linearGradient1803)"/>
   </g>
   <g fill="#fff">
    <path d="m10611 5061.4-47.4 31.2c-4.6 3-5.8 9.1-2.9 13.6 3 4.6 9.1 5.8 13.7 2.9v-0.1l0.6-0.4 45.9-31.2 0.6-0.4c4.2-2.9 5.3-8.7 2.4-13-2.9-4.2-8.6-5.4-12.9-2.6"/>
    <path d="m10461 5176.4-40.6 39.6c-4.5 4.4-4.5 11.6-0.2 16.1 4.4 4.4 11.6 4.5 16 0.1h0.1l0.5-0.5 39.2-39.5 0.3-0.3c4.3-4.3 4.2-11.2 0-15.4s-11-4.2-15.3-0.1"/>
    <path d="m10332 5315-35.1 44.5c-4.4 5.6-3.4 13.6 2.2 18 5.5 4.4 13.6 3.4 18-2.1l0.1-0.1 0.2-0.4 33.9-44.5 0.2-0.3c4.2-5.4 3.1-13.2-2.3-17.3s-13.1-3.1-17.2 2.2"/>
    <path d="m10221 5467.3-30.4 47.7c-4.3 6.7-2.3 15.4 4.3 19.6 6.6 4.3 15.4 2.3 19.6-4.3l0.1-0.1 0.2-0.4 29.5-47.4 0.2-0.4c4-6.5 2-15-4.5-19.1-6.5-4-14.9-2-19 4.4"/>
    <path d="m10125 5629.8-25.8 50.5c-3.8 7.5-0.9 16.8 6.7 20.6 7.5 3.9 16.8 0.9 20.6-6.7l0.1-0.1 0.2-0.4 24.8-50 0.1-0.4c3.7-7.4 0.7-16.4-6.7-20.1-7.4-3.6-16.3-0.7-20 6.6"/>
    <path d="m10044 5800.7-21 52.7c-3.4 8.4 0.7 18 9.2 21.3 8.4 3.4 18-0.7 21.3-9.1l0.1-0.1 0.2-0.5 20-52.1 0.2-0.4c3.2-8.3-0.9-17.6-9.2-20.8s-17.5 0.9-20.8 9"/>
    <path d="m9979.8 5978.2-16.31 54.3c-2.79 9.3 2.48 19.1 11.77 21.9s19.08-2.5 21.88-11.8l0.18-0.6 15.43-53.6 0.1-0.4c2.6-9.2-2.6-18.7-11.8-21.4-9.06-2.6-18.54 2.6-21.25 11.6"/>
    <path d="m9930.9 6160.7-11.7 55.5c-2.12 10.1 4.34 20 14.44 22.1 10.1 2.2 20.01-4.3 22.14-14.4l0.02-0.1 0.11-0.6 10.85-54.7 0.09-0.4c1.97-10-4.49-19.6-14.43-21.6-9.87-2-19.45 4.4-21.52 14.2"/>
    <path d="m9897.2 6346.6-7.2 56.3c-1.39 10.8 6.28 20.8 17.13 22.1 10.85 1.4 20.78-6.2 22.16-17.1l0.02-0.1 0.07-0.6 6.42-55.4 0.05-0.4c1.23-10.7-6.42-20.4-17.1-21.6-10.6-1.2-20.2 6.3-21.55 16.8"/>
    <path d="m9878.3 6534.7-2.85 56.65c-0.59 11.53 8.3 21.36 19.84 21.94 11.55 0.59 21.37-8.3 21.96-19.84v-0.14l0.03-0.59 2.13-55.73 0.02-0.47c0.44-11.35-8.41-20.92-19.78-21.35-11.28-0.44-20.78 8.3-21.35 19.53"/>
    <path d="m9873.7 6723.7 1.34 56.71c0.29 12.17 10.39 21.81 22.56 21.51 12.17-0.29 21.81-10.39 21.52-22.55v-0.15l-0.03-0.6-1.99-55.73-0.01-0.48c-0.43-11.98-10.49-21.35-22.47-20.92-11.89 0.42-21.2 10.35-20.92 22.21"/>
    <path d="m9883 6912.5 5.41 56.47c1.22 12.74 12.53 22.07 25.27 20.85 12.73-1.21 22.07-12.53 20.85-25.26l-0.02-0.15-0.06-0.61-5.98-55.44-0.05-0.48c-1.35-12.54-12.61-21.6-25.14-20.25-12.44 1.33-21.46 12.45-20.28 24.87"/>
    <path d="m9905.7 7100.2 9.48 55.97c2.22 13.1 14.63 21.91 27.72 19.7 13.1-2.23 21.91-14.64 19.69-27.73l-0.03-0.17-0.09-0.49-9.71-54.93-0.09-0.49c-2.29-12.97-14.66-21.61-27.62-19.33-12.9 2.29-21.53 14.57-19.35 27.47"/>
    <path d="m9941.8 7285.9 13.32 55.17c3.2 13.28 16.56 21.44 29.84 18.24 13.27-3.21 21.4-16.57 18.2-29.85v-0.16l-0.1-0.5-13.51-54.09-0.12-0.49c-3.27-13.14-16.58-21.14-29.72-17.86-13.08 3.25-21.06 16.46-17.91 29.54"/>
    <path d="m9990.6 7468.7 17.07 54.14c4.2 13.38 18.5 20.81 31.9 16.59s20.8-18.49 16.6-31.88l-0.1-0.17-0.1-0.5-17.2-53.02-0.1-0.5c-4.3-13.24-18.5-20.51-31.8-16.22-13.17 4.27-20.42 18.37-16.27 31.56"/>
    <path d="m10052 7647.7 20.8 52.85c5.2 13.41 20.4 20.01 33.8 14.73 13.4-5.27 20-20.42 14.7-33.83v-0.18l-0.2-0.5-20.8-51.69-0.2-0.51c-5.3-13.26-20.4-19.69-33.7-14.37-13.2 5.3-19.6 20.27-14.4 33.5"/>
    <path d="m10125 7822.1 24.5 51.3c6.3 13.35 22.3 19.01 35.7 12.65 13.3-6.35 19-22.34 12.6-35.69l-0.1-0.18-0.2-0.5-24.3-50.1-0.3-0.51c-6.4-13.2-22.3-18.71-35.5-12.3-13.1 6.37-18.6 22.16-12.4 35.33"/>
    <path d="m10211 7991 28.1 49.47c7.5 13.18 24.2 17.81 37.4 10.32 13.2-7.48 17.8-24.25 10.4-37.44l-0.1-0.18-0.3-0.51-27.9-48.23-0.3-0.51c-7.5-13.04-24.2-17.5-37.2-9.98-13 7.48-17.5 24.05-10.1 37.06"/>
    <path d="m10309 8153.3 31.3 47.37c8.6 12.97 26.1 16.54 39 7.97 13-8.57 16.6-26.02 8-39l-0.1-0.17-0.3-0.44-31.1-46.27-0.3-0.44c-8.6-12.81-25.9-16.22-38.7-7.61-12.8 8.55-16.2 25.8-7.8 38.59"/>
    <path d="m10416 8308.9 34.1 45.34c9.6 12.72 27.7 15.27 40.4 5.69s15.2-27.66 5.7-40.38l-0.2-0.17-0.3-0.42-33.8-44.26-0.3-0.42c-9.7-12.55-27.6-14.94-40.2-5.34-12.5 9.56-14.9 27.41-5.4 39.96"/>
    <path d="m10533 8457.6 36.9 43.22c10.5 12.41 29.1 13.9 41.6 3.34 12.4-10.57 13.9-29.2 3.3-41.61l-0.1-0.17-0.4-0.38-36.4-42.17-0.4-0.39c-10.5-12.25-29-13.6-41.3-3.02-12.2 10.54-13.6 28.93-3.2 41.18"/>
    <path d="m10659 8599.1 39.2 41.03c11.5 12.05 30.6 12.48 42.7 0.96 12.1-11.53 12.5-30.65 1-42.7l-0.2-0.16-0.3-0.36-38.8-40.01-0.4-0.37c-11.5-11.89-30.5-12.18-42.4-0.65-11.8 11.48-12.2 30.36-0.8 42.26"/>
    <path d="m10792 8733.3 41.4 38.79c12.5 11.66 32 11.03 43.7-1.42 11.6-12.44 11-31.99-1.4-43.65l-0.2-0.15-0.4-0.34-40.9-37.82-0.4-0.34c-12.4-11.5-31.9-10.72-43.3 1.73-11.5 12.39-10.8 31.68 1.5 43.2"/>
    <path d="m10933 8860 43.4 36.56c13.3 11.24 33.2 9.54 44.4-3.79 11.3-13.33 9.6-33.25-3.7-44.48l-0.2-0.15-0.4-0.31-42.9-35.62-0.4-0.32c-13.3-11.07-33.1-9.23-44.1 4.09-11 13.26-9.3 32.92 3.9 44.02"/>
    <path d="m11079 8979.3 45.1 34.34c14.2 10.78 34.4 8.03 45.2-6.14 10.8-14.18 8.1-34.42-6.1-45.2l-0.2-0.15-0.4-0.27-44.6-33.45-0.4-0.28c-14.2-10.61-34.2-7.73-44.9 6.43-10.5 14.1-7.7 34.07 6.3 44.72"/>
    <path d="m11232 9091.2 46.7 32.14c15 10.31 35.5 6.51 45.8-8.48s6.5-35.49-8.5-45.8l-0.6-0.39-46.2-31.28-0.3-0.26c-15-10.13-35.4-6.21-45.5 8.75-10.1 14.91-6.2 35.14 8.6 45.32"/>
    <path d="m11389 9195.8 48.2 29.88c15.7 9.77 36.4 4.93 46.1-10.81 9.8-15.74 5-36.41-10.8-46.17l-0.1-0.08-0.4-0.23-47.5-29.22-0.4-0.23c-15.7-9.67-36.3-4.75-46 10.97-9.6 15.72-4.8 36.22 10.9 45.89"/>
    <path d="m11551 9292.8 49.4 27.7c16.3 9.11 36.9 3.32 46-12.94 9.1-16.27 3.3-36.84-12.9-45.96l-0.1-0.04-0.4-0.21-48.7-27.15-0.4-0.21c-16.2-9.06-36.8-3.23-45.8 13.02-9.1 16.26-3.3 36.74 12.9 45.79"/>
    <path d="m11717 9382.7 50.5 25.64c16.8 8.49 37.2 1.8 45.7-14.95 8.5-16.73 1.8-37.19-14.9-45.68l-0.1-0.03-0.4-0.19-49.9-25.15-0.3-0.18c-16.8-8.43-37.2-1.71-45.6 15.02s-1.8 37.09 15 45.52"/>
    <path d="m11887 9465.7 51.6 23.57c17.1 7.86 37.4 0.3 45.3-16.88s0.3-37.48-16.9-45.34v-0.04l-0.4-0.16-50.9-23.12-0.3-0.16c-17.2-7.8-37.4-0.22-45.2 16.95s-0.3 37.37 16.8 45.18"/>
    <path d="m12060 9541.9 52.4 21.56c17.6 7.23 37.7-1.16 44.9-18.75 7.3-17.58-1.1-37.71-18.7-44.95l-0.1-0.03-0.3-0.15-51.7-21.13-0.4-0.15c-17.6-7.18-37.6 1.24-44.8 18.81s1.1 37.61 18.7 44.79"/>
    <path d="m12235 9611.5 53.2 19.58c17.9 6.62 37.8-2.57 44.5-20.54 6.6-17.96-2.6-37.89-20.6-44.51l-0.1-0.03-0.3-0.13-52.5-19.18-0.3-0.14c-18-6.56-37.9 2.67-44.4 20.61-6.6 17.95 2.6 37.79 20.5 44.34"/>
    <path d="m12413 9674.4 53.8 17.65c18.3 6 38.1-3.99 44.1-22.3 5.9-18.31-4-38.02-22.3-44.01l-0.5-0.15-53.2-17.28-0.3-0.12c-18.3-5.94-38 4.07-43.9 22.36-6 18.29 4 37.91 22.3 43.85"/>
    <path d="m12593 9731 54.3 15.71c18.7 5.4 38.1-5.35 43.5-23.97 5.4-18.64-5.3-38.11-24-43.5v-0.02l-0.4-0.09-53.7-15.39-0.3-0.1c-18.6-5.33-38 5.43-43.4 24.04-5.3 18.61 5.4 37.99 24 43.32"/>
    <path d="m12775 9781.4 54.8 14.01c18.9 4.84 38.2-6.57 43-25.48 4.9-18.91-6.6-38.16-25.5-43v-0.02l-0.4-0.08-54.2-13.73-0.3-0.07c-18.9-4.79-38.1 6.65-42.8 25.53-4.8 18.89 6.5 38.05 25.4 42.84"/>
    <path d="m12958 9826.2 55.2 12.41c19.2 4.32 38.2-7.73 42.5-26.89 4.3-19.17-7.7-38.2-26.9-42.51l-0.4-0.08-54.6-12.15-0.3-0.07c-19.1-4.25-38.1 7.81-42.3 26.95-4.3 19.14 7.7 38.09 26.8 42.34"/>
    <path d="m13142 9865.8 55.5 10.9c19.4 3.81 38.2-8.82 42-28.22s-8.8-38.22-28.2-42.03l-0.1-0.02-0.3-0.05-54.9-10.66-0.3-0.05c-19.4-3.76-38.1 8.89-41.9 28.26-3.7 19.38 8.8 38.11 28.2 41.87"/>
    <path d="m13328 9900.4 55.7 9.5c19.6 3.35 38.2-9.84 41.6-29.45 3.3-19.62-9.9-38.22-29.5-41.57l-0.1-0.01-0.2-0.05-55.2-9.27-0.3-0.04c-19.6-3.3-38.1 9.91-41.4 29.49s9.8 38.11 29.4 41.4"/>
    <path d="m13514 9930.6 55.9 8.2c19.8 2.92 38.2-10.79 41.1-30.59 2.9-19.81-10.8-38.22-30.6-41.13l-0.1-0.02-0.2-0.03-55.4-8-0.3-0.03c-19.8-2.86-38.1 10.86-41 30.64-2.8 19.78 10.8 38.11 30.6 40.96"/>
    <path d="m13700 9956.5 56 7.02c20 2.51 38.2-11.66 40.7-31.65s-11.6-38.23-31.6-40.73l-0.1-0.01-0.2-0.03-55.6-6.83-0.3-0.03c-19.9-2.44-38.1 11.75-40.5 31.7-2.5 19.96 11.6 38.12 31.6 40.56"/>
    <path d="m13887 9978.6 56.1 5.95c20.2 2.13 38.2-12.48 40.4-32.64 2.1-20.15-12.5-38.22-32.7-40.36l-0.3-0.03-55.7-5.77-0.2-0.02c-20.1-2.08-38.1 12.55-40.2 32.67-2.1 20.13 12.4 38.12 32.6 40.2"/>
    <path d="m14074 9997.3 56.1 5.03c20.3 1.8 38.3-13.26 40.1-33.57 1.8-20.32-13.3-38.24-33.6-40.05l-0.2-0.02-55.8-4.81-0.2-0.02c-20.3-1.75-38.1 13.27-39.9 33.56-1.7 20.28 13.2 38.13 33.5 39.88"/>
    <path d="m14261 10013 56.3 4.1c20.4 1.5 38.2-13.9 39.7-34.34 1.5-20.47-13.8-38.27-34.3-39.78l-0.2-0.02-56-3.97-0.1-0.01c-20.5-1.45-38.2 13.93-39.6 34.36-1.5 20.43 13.8 38.16 34.2 39.66"/>
    <path d="m14449 10026 56.3 3.4c20.6 1.2 38.3-14.5 39.5-35.11 1.3-20.61-14.4-38.32-35-39.57h-0.1l-0.2-0.01-56-3.25-0.1-0.01c-20.6-1.19-38.3 14.53-39.4 35.09-1.2 20.56 14.4 38.26 35 39.46"/>
    <path d="m14637 10036 56.3 2.8c20.7 1 38.4-15 39.4-35.7 1-20.78-15-38.42-35.7-39.44h-0.1l-0.1-0.01-56.1-2.62-0.1-0.01c-20.7-0.97-38.3 15.04-39.3 35.75-1 20.73 14.9 38.33 35.7 39.23"/>
    <path d="m14824 10045 56.3 2.3c20.9 0.8 38.5-15.5 39.3-36.3 0.9-20.91-15.4-38.52-36.3-39.35l-0.2-0.01-56.1-2.11h-0.1c-20.9-0.78-38.4 15.48-39.2 36.37-0.8 20.8 15.4 38.3 36.3 39.1"/>
    <path d="m15012 10052 56.3 1.7c20.9 0.7 38.4-15.8 39-36.7 0.7-20.87-15.8-38.34-36.7-38.98l-56.2-1.81c-20.9-0.72-38.5 15.67-39.2 36.59-0.7 21 15.7 38.5 36.6 39.2h0.2"/>
    <path d="m15200 10057 56.3 1.4c20.8 0.5 38.1-16 38.6-36.8s-15.9-38.1-36.7-38.63l-56.2-1.51c-20.9-0.59-38.3 15.84-38.9 36.64-0.5 20.9 15.9 38.3 36.7 38.9h0.2"/>
    <path d="m15387 10062 56.3 1.2c20.7 0.5 37.9-16 38.3-36.7 0.5-20.7-15.9-37.91-36.7-38.36l-56.2-1.31c-20.7-0.5-38 15.97-38.5 36.67-0.5 20.8 16 38 36.7 38.5h0.1"/>
    <path d="m15575 10066 56.3 1.2c20.6 0.4 37.7-16 38.1-36.6 0.4-20.7-15.9-37.76-36.6-38.18l-56.2-1.24c-20.7-0.45-37.8 15.92-38.3 36.62-0.4 20.6 15.9 37.8 36.6 38.2h0.1"/>
    <path d="m15762 10069 56.2 1.1c20.5 0.5 37.6-15.8 38-36.4 0.4-20.5-15.8-37.55-36.4-37.99l-56.2-1.28c-20.6-0.46-37.7 15.87-38.1 36.47-0.5 20.5 15.8 37.6 36.4 38.1h0.1"/>
    <path d="m15950 10073 56.2 1.4c20.5 0.5 37.5-15.7 38-36.2 0.5-20.4-15.7-37.4-36.1-37.9l-56.3-1.47c-20.5-0.52-37.5 15.67-38 36.17s15.6 37.5 36.1 38h0.1"/>
    <path d="m16137 10078 56.2 1.6c20.3 0.6 37.3-15.4 38-35.8 0.6-20.3-15.5-37.3-35.8-38l-56.3-1.6c-20.4-0.6-37.4 15.4-38 35.8s15.4 37.4 35.8 38h0.1"/>
   </g>
   <g transform="scale(1.0073)">
    <path d="m16206 10011 55.7 1.9c20.1 0.7 37-14.97 37.8-35.08 0.7-20.13-15-37.04-35.1-37.79l-55.9-2.04c-20.2-0.73-37.1 15.02-37.9 35.16-0.7 20.15 15 37.05 35.2 37.85h0.2" fill="#fff"/>
   </g>
   <g transform="scale(1.0188)">
    <path d="m16207 9904.6 54.9 2.37h0.1c19.8 0.86 36.6-14.5 37.5-34.3 0.8-19.79-14.5-36.54-34.2-37.39l-55.3-2.48c-19.8-0.89-36.6 14.46-37.5 34.28s14.4 36.62 34.3 37.51l0.1 0.01h0.1" fill="#fff"/>
   </g>
   <g transform="scale(1.0303)">
    <path d="m16207 9802.6 54.4 2.91 0.1 0.01c19.5 1.05 36.2-13.9 37.1-33.39 1.1-19.47-13.8-36.1-33.3-37.16l-54.6-3.02c-19.5-1.08-36.2 13.86-37.3 33.36-1 19.51 13.9 36.2 33.4 37.28v0.01h0.2" fill="#fff"/>
   </g>
   <g transform="scale(1.0418)">
    <path d="m16208 9704.8 53.8 3.55h0.1c19.2 1.27 35.8-13.24 37.1-32.39 1.2-19.18-13.3-35.73-32.4-37l-54-3.66c-19.2-1.3-35.8 13.19-37.1 32.38s13.2 35.81 32.4 37.1l0.1 0.01v0.01" fill="#fff"/>
   </g>
   <g transform="scale(1.0533)">
    <path d="m16208 9611.6 53.2 4.3 0.1 0.02c18.8 1.51 35.4-12.55 36.9-31.39 1.5-18.85-12.5-35.36-31.4-36.88l-53.4-4.39c-18.8-1.56-35.4 12.48-36.9 31.36-1.7 18.86 12.4 35.42 31.3 36.98h0.2" fill="#fff"/>
   </g>
   <g transform="scale(1.0647)">
    <path d="m16209 9523.2 52.4 5.09 0.2 0.02c18.6 1.79 35-11.77 36.8-30.3 1.9-18.53-11.6-35.01-30.2-36.82l-52.8-5.21c-18.5-1.84-35 11.71-36.9 30.27-1.8 18.55 11.7 35.09 30.3 36.92v0.01l0.2 0.02" fill="#fff"/>
   </g>
   <g transform="scale(1.0762)">
    <path d="m16209 9439.9 51.8 5.98 0.2 0.03c18.2 2.11 34.6-10.95 36.8-29.17 2.1-18.21-10.9-34.69-29.1-36.79l-52.2-6.13c-18.2-2.15-34.7 10.9-36.8 29.14-2.2 18.24 10.8 34.76 29.1 36.91l0.2 0.03" fill="#fff"/>
   </g>
   <g transform="scale(1.0876)">
    <path d="m16210 9361.8 51.1 6.97 0.1 0.03c17.9 2.44 34.4-10.09 36.8-27.98 2.5-17.9-10-34.38-27.8-36.82l-51.5-7.12c-17.9-2.47-34.4 10.04-36.9 27.96-2.5 17.91 10 34.45 27.9 36.93l0.3 0.03" fill="#fff"/>
   </g>
   <g transform="scale(1.099)">
    <path d="m16210 9289.1 50.3 8.01 0.2 0.05c17.6 2.79 34.1-9.18 36.9-26.75s-9.1-34.07-26.7-36.87l-50.8-8.18c-17.5-2.84-34.1 9.12-36.9 26.71-2.8 17.58 9.1 34.14 26.7 36.98l0.3 0.05" fill="#fff"/>
   </g>
   <g transform="scale(1.1103)">
    <path d="m16210 9222.2 49.5 9.15 0.3 0.05c17.2 3.17 33.8-8.22 36.9-25.45 3.2-17.24-8.1-33.78-25.4-36.96l-49.9-9.32c-17.3-3.22-33.9 8.16-37.1 25.41-3.2 17.26 8.1 33.85 25.4 37.07v0.02l0.3 0.03" fill="#fff"/>
   </g>
   <g transform="scale(1.1216)">
    <path d="m16210 9161.1 48.9 10.34 0.2 0.06c16.9 3.58 33.5-7.21 37-24.11 3.7-16.89-7.1-33.48-23.9-37.06l-49.3-10.55c-17-3.61-33.6 7.17-37.2 24.07-3.7 16.92 7.1 33.56 24 37.18l0.1 0.01 0.2 0.06" fill="#fff"/>
   </g>
   <g transform="scale(1.1328)">
    <path d="m16210 9106.2 48 11.66 0.3 0.07c16.5 4.01 33.2-6.15 37.1-22.68 4.1-16.53-6-33.19-22.6-37.21l-48.4-11.87c-16.6-4.04-33.3 6.1-37.4 22.65-4 16.55 6.1 33.25 22.7 37.31v0.02l0.3 0.05" fill="#fff"/>
   </g>
   <g transform="scale(1.1439)">
    <path d="m16211 9057.9 47.1 13.11 0.3 0.08c16.2 4.49 32.9-4.96 37.4-21.12 4.5-16.15-4.9-32.88-21-37.39l-47.7-13.35c-16.1-4.53-32.9 4.9-37.5 21.07-4.5 16.18 4.9 32.97 21.1 37.5v0.02l0.3 0.08" fill="#fff"/>
   </g>
   <g transform="scale(1.1549)">
    <path d="m16211 9016.7 46.1 14.7 0.3 0.1c15.7 5.02 32.6-3.69 37.6-19.44s-3.7-32.58-19.4-37.59l-46.7-14.98c-15.8-5.06-32.6 3.63-37.7 19.39-5.1 15.77 3.6 32.65 19.4 37.71v0.01l0.4 0.1" fill="#fff"/>
   </g>
   <g transform="scale(1.1658)">
    <path d="m16211 8983.3 45.1 16.39 0.3 0.13c15.3 5.58 32.2-2.31 37.8-17.62s-2.2-32.25-17.6-37.82l-45.6-16.75c-15.4-5.61-32.3 2.26-37.9 17.59-5.7 15.33 2.2 32.31 17.6 37.93v0.01l0.3 0.14" fill="#fff"/>
   </g>
   <g transform="scale(1.1765)">
    <path d="m16212 8958.1 43.8 18.24 0.4 0.16c14.8 6.19 31.9-0.84 38-15.67 6.2-14.84-0.8-31.86-15.6-38.05l-44.5-18.63c-14.8-6.22-31.9 0.77-38.1 15.63-6.3 14.85 0.8 31.92 15.6 38.14l0.1 0.02 0.3 0.16" fill="#fff"/>
   </g>
   <g transform="scale(1.1869)">
    <path d="m16212 8941.8 42.4 20.2 0.4 0.19c14.4 6.83 31.5 0.75 38.3-13.56s0.7-31.43-13.5-38.25l-43.2-20.66c-14.3-6.86-31.4-0.81-38.4 13.52-6.8 14.32-0.7 31.49 13.6 38.35v0.02l0.4 0.19" fill="#fff"/>
   </g>
   <g transform="scale(1.1971)">
    <path d="m16213 8935 40.8 22.28 0.5 0.23c13.7 7.49 30.9 2.43 38.4-11.3s2.5-30.91-11.2-38.41l-41.7-22.82c-13.7-7.54-31-2.5-38.5 11.24s-2.5 31 11.3 38.52v0.03l0.4 0.23" fill="#fff"/>
   </g>
   <g transform="scale(1.207)">
    <path d="m16214 8938.4 39.1 24.41 0.4 0.28c13.1 8.19 30.3 4.21 38.5-8.88s4.2-30.31-8.9-38.51l-39.8-25.02c-13.1-8.23-30.3-4.28-38.6 8.82-8.2 13.1-4.3 30.38 8.8 38.61v0.02l0.5 0.27" fill="#fff"/>
   </g>
   <g transform="scale(1.2164)">
    <path d="m16215 8952.6 37.1 26.63 0.4 0.32c12.4 8.9 29.6 6.07 38.5-6.31s6.1-29.61-6.2-38.5l-37.9-27.34c-12.4-8.93-29.7-6.14-38.7 6.25-8.8 12.38-6 29.66 6.3 38.6l0.1 0.03 0.4 0.32" fill="#fff"/>
   </g>
   <g transform="scale(1.2254)">
    <path d="m16217 8978 35 28.85 0.5 0.37c11.5 9.55 28.6 7.92 38.2-3.65 9.5-11.54 7.9-28.58-3.6-38.14l-35.7-29.79c-11.5-9.65-28.7-8.09-38.4 3.47-9.7 11.57-8.1 28.78 3.5 38.43l0.1 0.09 0.4 0.37" fill="#fff"/>
   </g>
   <g transform="scale(1.2337)">
    <path d="m16220 9016.1 31.7 31.58 0.6 0.59c10.4 10.36 27.2 10.32 37.6-0.08 10.3-10.36 10.3-27.11 0-37.47l-32.7-32.93c-10.4-10.45-27.4-10.51-37.8-0.11-10.5 10.39-10.5 27.29-0.1 37.74l0.1 0.1 0.6 0.58" fill="#fff"/>
   </g>
   <g transform="scale(1.2413)">
    <path d="m16222 9069.7 27.6 34.64 0.7 0.77c8.9 11.22 25.2 13.05 36.5 4.09 11.2-8.93 13-25.22 4.2-36.44l-28.7-36.32c-9-11.33-25.4-13.24-36.7-4.3-11.4 8.94-13.3 25.37-4.3 36.69v0.11l0.7 0.76" fill="#fff"/>
   </g>
   <g transform="scale(1.2476)">
    <path d="m16226 9142.6 22.2 37.79 0.6 1.08c7.2 12.11 22.8 16.15 34.9 9.01 12.1-7.12 16.1-22.65 9.1-34.75l-23.3-40.03c-7.1-12.22-22.8-16.36-34.9-9.25-12.3 7.11-16.4 22.77-9.3 34.98v0.12l0.7 1.05" fill="#fff"/>
   </g>
   <g transform="scale(1.2522)">
    <path d="m16233 9238.5 14.9 40.74 0.5 1.45c4.8 12.95 19.1 19.59 32.1 14.85 12.9-4.73 19.5-19 14.9-31.91l-15.8-43.69c-4.7-13.04-19.1-19.8-32.1-15.09-13.1 4.69-19.8 19.07-15.1 32.12v0.12l0.6 1.41" fill="#fff"/>
   </g>
   <g transform="scale(1.2543)">
    <path d="m16244 9360.8 5.5 42.7 0.2 1.8c1.7 13.44 13.9 22.94 27.4 21.24 13.4-1.7 22.9-13.92 21.2-27.29l-5.6-46.3c-1.6-13.52-13.9-23.14-27.4-21.5-13.5 1.65-23.2 13.93-21.5 27.45v0.13l0.2 1.77" fill="#fff"/>
   </g>
   <g transform="scale(1.2543)">
    <path d="m16250 9503.9-5.4 42.7-0.2 1.77c-1.7 13.22 7.7 25.29 20.9 26.96 13.2 1.66 25.2-7.64 27-20.79l6-46.24c1.8-13.28-7.5-25.46-20.8-27.21s-25.5 7.61-27.2 20.88v0.13l-0.3 1.8" fill="#fff"/>
   </g>
   <g transform="scale(1.252)">
    <path d="m16250 9662.1-14.8 40.91-0.5 1.3c-4.4 12.34 2 25.98 14.3 30.46 12.3 4.47 25.8-1.87 30.4-14.12l16-43.47c4.6-12.38-1.8-26.13-14.2-30.7-12.4-4.56-26.1 1.78-30.6 14.16v0.12l-0.6 1.34" fill="#fff"/>
   </g>
   <g transform="scale(1.2474)">
    <path d="m16252 9831.7-21.8 38.33-0.5 0.86c-6.4 11.27-2.4 25.61 8.8 32.01 11.2 6.38 25.5 2.48 32-8.7l23-39.98c6.5-11.29 2.6-25.71-8.7-32.21-11.3-6.51-25.8-2.61-32.3 8.69v0.1l-0.5 0.9" fill="#fff"/>
   </g>
   <g transform="scale(1.2412)">
    <path d="m16254 10006-26.7 35.8-0.4 0.6c-7.6 10.2-5.6 24.8 4.8 32.4 10.2 7.7 24.6 5.6 32.3-4.6l27.8-36.8c7.7-10.3 5.6-24.9-4.6-32.7-10.3-7.73-24.9-5.68-32.7 4.6v0.1l-0.5 0.6" fill="#fff"/>
   </g>
   <g transform="scale(1.2339)">
    <path d="m16257 10182-30.1 33.5-0.5 0.4c-8.5 9.4-7.6 23.9 1.7 32.4 9.4 8.5 23.8 7.8 32.3-1.6l31.2-34.2c8.6-9.4 7.9-23.9-1.5-32.5s-24-7.9-32.5 1.5l-0.1 0.1-0.5 0.4" fill="#fff"/>
   </g>
   <g transform="scale(1.2258)">
    <path d="m16259 10358-33.3 30.6-0.5 0.5c-9.2 8.5-9.8 22.8-1.3 32 8.4 9.2 22.7 9.8 31.9 1.4l34.4-31.3c9.3-8.5 10-22.9 1.5-32.2s-22.8-10-32.1-1.5l-0.1 0.1-0.5 0.4" fill="#fff"/>
   </g>
   <g transform="scale(1.2171)">
    <path d="m16260 10531-36.4 27.5-0.5 0.4c-9.9 7.5-11.8 21.5-4.3 31.4 7.3 9.8 21.4 11.8 31.3 4.4l37.5-28.1c10-7.4 12-21.6 4.6-31.5-7.5-10-21.6-12.1-31.5-4.6l-0.2 0.1-0.5 0.4" fill="#fff"/>
   </g>
   <g transform="scale(1.2077)">
    <path d="m16262 10701-39.1 23.8-0.6 0.4c-10.5 6.4-13.9 20-7.5 30.5 6.3 10.4 19.9 13.8 30.4 7.5l40.5-24.3c10.6-6.4 14-20.1 7.6-30.7-6.3-10.5-20-13.9-30.5-7.6l-0.1 0.1-0.7 0.3" fill="#fff"/>
   </g>
   <g transform="scale(1.1976)">
    <path d="m16265 10867-41.8 19.6-0.7 0.3c-11 5.2-15.7 18.3-10.5 29.2 5.1 11 18.1 15.7 29.1 10.6l43.2-20c11.1-5.1 15.9-18.2 10.8-29.3s-18.3-15.9-29.3-10.8l-0.1 0.1-0.7 0.3" fill="#fff"/>
   </g>
   <g transform="scale(1.1869)">
    <path d="m16268 11025-44.2 15.1-0.7 0.2c-11.3 3.9-17.4 16.2-13.5 27.6 3.8 11.3 16.1 17.4 27.4 13.6l45.6-15.3c11.5-3.8 17.7-16.2 13.8-27.6-3.8-11.5-16.2-17.6-27.6-13.8h-0.1l-0.7 0.2" fill="#fff"/>
   </g>
   <g transform="scale(1.1758)">
    <path d="m16271 11174-46 10.5-0.6 0.2c-11.5 2.6-18.9 14.2-16.1 25.7 2.6 11.6 14.1 18.8 25.6 16.2l47.2-10.5c11.7-2.6 19.1-14.2 16.5-25.9-2.6-11.6-14.2-19-25.9-16.4l-0.1 0.1-0.6 0.1" fill="#fff"/>
   </g>
   <g transform="scale(1.1644)">
    <path d="m16274 11313-47.3 6.4-0.5 0.1c-11.7 1.6-19.9 12.3-18.3 24 1.6 11.6 12.3 19.7 23.9 18.2l48.4-6.3c11.7-1.5 20-12.3 18.5-24-1.6-11.7-12.3-20-24.1-18.5l-0.1 0.1h-0.5" fill="#fff"/>
   </g>
   <g transform="scale(1.1529)">
    <path d="m16276 11444-48.2 2.9h-0.5c-11.6 0.7-20.4 10.6-19.7 22.2 0.6 11.6 10.5 20.5 22.1 19.9l49.2-2.6c11.6-0.7 20.6-10.6 20-22.3s-10.6-20.7-22.3-20.1h-0.6" fill="#fff"/>
   </g>
   <g transform="scale(1.1413)">
    <path d="m16279 11565-48.9-0.3h-0.4c-11.5 0-20.9 9.2-21 20.8 0 11.4 9.2 20.8 20.7 20.9l49.6 0.6c11.6 0.1 21-9.2 21.2-20.8 0.1-11.6-9.2-21.1-20.7-21.2h-0.5" fill="#fff"/>
   </g>
   <g transform="scale(1.1298)">
    <path d="m16280 11679-49.4-2.7-0.3-0.1c-11.2-0.6-20.9 8-21.5 19.3-0.6 11.1 7.9 20.7 19 21.4l50 3.2c11.4 0.8 21.2-7.8 21.9-19.2 0.7-11.3-7.9-21.1-19.2-21.9h-0.5" fill="#fff"/>
   </g>
   <g transform="scale(1.1183)">
    <path d="m16281 11788-50-4.8h-0.2c-10.9-1.1-20.5 6.9-21.5 17.8-1.1 10.8 6.8 20.4 17.5 21.5l50.3 5.4c11 1.1 20.9-6.8 22-17.8 1.2-11-6.8-20.9-17.8-22l-0.1-0.1h-0.2" fill="#fff"/>
   </g>
   <g transform="scale(1.1068)">
    <path d="m16282 11892-50.3-6.4h-0.1c-10.6-1.3-20.2 6.1-21.5 16.6-1.4 10.4 6 20 16.4 21.4l50.6 7c10.6 1.4 20.4-6 21.9-16.6 1.4-10.6-6-20.4-16.7-21.9h-0.2l-0.1-0.1" fill="#fff"/>
   </g>
   <g transform="scale(1.0954)">
    <path d="m16282 11992-50.5-8.1-0.2-0.1c-10.1-1.6-19.6 5.3-21.3 15.4-1.6 10.1 5.1 19.5 15.2 21.3l50.8 8.7c10.3 1.7 20-5.1 21.8-15.4 1.7-10.2-5.1-20-15.4-21.7l-0.2-0.1h-0.2" fill="#fff"/>
   </g>
   <g transform="scale(1.0841)">
    <path d="m16284 12088-50.6-10.3-0.2-0.1c-9.7-1.9-19.2 4.3-21.2 14.1-2 9.6 4.3 19 13.9 21.1l51 10.8c9.8 2.1 19.4-4.2 21.6-14 2-9.8-4.3-19.5-14-21.6h-0.5" fill="#fff"/>
   </g>
   <g transform="scale(1.0728)">
    <path d="m16285 12178-50.6-12.8-0.3-0.1c-9.2-2.3-18.6 3.3-21 12.6-2.3 9.2 3.2 18.5 12.4 21l51 13.3c9.4 2.5 19-3.1 21.5-12.5 2.4-9.4-3.2-19-12.6-21.4l-0.1-0.1h-0.3" fill="#fff"/>
   </g>
   <g transform="scale(1.0617)">
    <path d="m16286 12259-50.3-15.7-0.3-0.1c-8.8-2.7-18.1 2.2-20.8 10.9-2.7 8.8 2.1 18 10.7 20.9l50.8 16.3c8.8 2.9 18.4-2 21.3-10.9 2.8-8.9-2.1-18.4-10.9-21.3h-0.2l-0.3-0.1" fill="#fff"/>
   </g>
   <g transform="scale(1.0507)">
    <path d="m16287 12331-49.7-18.9-0.4-0.1c-8.2-3.2-17.4 1-20.6 9.2-3.1 8.2 1 17.4 9.1 20.6l50.1 19.6c8.3 3.3 17.7-0.8 21.1-9.1 3.2-8.4-0.9-17.8-9.3-21.1h-0.1l-0.2-0.2" fill="#fff"/>
   </g>
   <g transform="scale(1.0401)">
    <path d="m16289 12389-48.8-22.7-0.3-0.1c-7.7-3.5-16.8-0.2-20.4 7.4-3.4 7.7-0.2 16.7 7.3 20.3l49.2 23.3c7.8 3.7 17 0.4 20.7-7.3 3.7-7.8 0.4-17-7.4-20.7l-0.1-0.1-0.2-0.1" fill="#fff"/>
   </g>
   <g transform="scale(1.0297)">
    <path d="m16290 12433-47.2-26.6-0.3-0.2c-7.1-4-15.9-1.5-19.9 5.5s-1.6 15.8 5.4 19.8l47.6 27.5c7.1 4.1 16.2 1.7 20.3-5.4s1.7-16.2-5.4-20.3l-0.1-0.1-0.4-0.2" fill="#fff"/>
   </g>
   <g transform="scale(1.0198)">
    <path d="m16292 12459-45.2-30.9-0.4-0.2c-6.3-4.3-14.9-2.7-19.3 3.6-4.3 6.3-2.7 14.8 3.6 19.2l45.5 31.7c6.5 4.5 15.2 2.9 19.7-3.5 4.4-6.3 2.8-15.1-3.5-19.6l-0.1-0.1-0.3-0.2" fill="#fff"/>
   </g>
   <g transform="scale(1.0105)">
    <path d="m16293 12466-42.7-35.2-0.3-0.3c-5.5-4.6-13.7-3.8-18.4 1.8-4.5 5.6-3.8 13.8 1.7 18.4l42.9 36.1c5.6 4.7 14 4 18.8-1.7 4.8-5.6 4-14-1.6-18.8l-0.1-0.1-0.3-0.2" fill="#fff"/>
   </g>
   <g transform="scale(1.0018)">
    <path d="m16295 12450-39.4-39.5-0.3-0.2c-4.8-4.8-12.6-4.8-17.4 0-4.8 4.7-4.9 12.5-0.1 17.3l39.5 40.4c4.8 5 12.8 5.1 17.8 0.2s5.1-12.8 0.2-17.8l-0.1-0.1-0.2-0.3" fill="#fff"/>
   </g>
   <g fill="#fff">
    <path d="m16198 12337-35.1-43.5-0.2-0.3c-4-4.9-11.2-5.7-16.2-1.7-4.9 4-5.7 11.1-1.8 16l35.2 44.5c4.1 5.1 11.4 5.9 16.5 1.9s5.9-11.4 1.9-16.5v-0.1l-0.3-0.3"/>
    <path d="m16087 12188-29.9-47.1-0.2-0.3c-3.2-4.9-9.7-6.4-14.6-3.2-4.9 3.1-6.4 9.5-3.4 14.5l29.9 48c3.1 5.1 9.8 6.6 14.9 3.5 5.1-3.2 6.7-9.9 3.5-15l-0.2-0.4"/>
    <path d="m15994 12026-23.9-50.4-0.1-0.3c-2.3-4.9-8.1-6.9-12.9-4.7-4.8 2.3-6.9 8-4.7 12.9l23.8 51.3c2.3 5 8.2 7.2 13.2 4.9s7.1-8.2 4.8-13.2v-0.1l-0.2-0.4"/>
   </g>
  </g>
 </g>
</svg>
